<mxfile host="Electron" modified="2024-07-01T07:08:20.134Z" agent="Mozilla/5.0 (Windows NT 10.0; Win64; x64) AppleWebKit/537.36 (KHTML, like Gecko) draw.io/24.6.4 Chrome/124.0.6367.207 Electron/30.0.6 Safari/537.36" etag="-KcTD2-HrDlDCB14SGzB" version="24.6.4" type="device">
  <diagram name="Strona-1" id="0L1Z6yUeAc3Qt4JGhVgI">
    <mxGraphModel dx="850" dy="824" grid="1" gridSize="10" guides="1" tooltips="1" connect="1" arrows="1" fold="1" page="1" pageScale="1" pageWidth="827" pageHeight="1169" math="0" shadow="0">
      <root>
        <mxCell id="0" />
        <mxCell id="1" parent="0" />
        <mxCell id="Rva5wzU9HTMexQS1WgZx-31" value="" style="rounded=1;whiteSpace=wrap;html=1;fontFamily=Helvetica;fontSize=11;fontColor=default;labelBackgroundColor=default;" vertex="1" parent="1">
          <mxGeometry x="20" y="60" width="740" height="170" as="geometry" />
        </mxCell>
        <mxCell id="Rva5wzU9HTMexQS1WgZx-28" value="" style="rounded=1;whiteSpace=wrap;html=1;fontFamily=Helvetica;fontSize=11;fontColor=default;labelBackgroundColor=default;fillColor=default;" vertex="1" parent="1">
          <mxGeometry x="590" y="70" width="160" height="150" as="geometry" />
        </mxCell>
        <mxCell id="Rva5wzU9HTMexQS1WgZx-30" value="" style="edgeStyle=orthogonalEdgeStyle;shape=connector;rounded=0;orthogonalLoop=1;jettySize=auto;html=1;strokeColor=default;align=center;verticalAlign=middle;fontFamily=Helvetica;fontSize=11;fontColor=default;labelBackgroundColor=default;endArrow=classic;sourcePerimeterSpacing=4;targetPerimeterSpacing=4;" edge="1" parent="1" source="Rva5wzU9HTMexQS1WgZx-27" target="Rva5wzU9HTMexQS1WgZx-28">
          <mxGeometry relative="1" as="geometry" />
        </mxCell>
        <mxCell id="Rva5wzU9HTMexQS1WgZx-27" value="" style="rounded=1;whiteSpace=wrap;html=1;fontFamily=Helvetica;fontSize=11;fontColor=default;labelBackgroundColor=default;fillColor=default;" vertex="1" parent="1">
          <mxGeometry x="310" y="70" width="160" height="150" as="geometry" />
        </mxCell>
        <mxCell id="Rva5wzU9HTMexQS1WgZx-29" value="" style="edgeStyle=orthogonalEdgeStyle;shape=connector;rounded=0;orthogonalLoop=1;jettySize=auto;html=1;strokeColor=default;align=center;verticalAlign=middle;fontFamily=Helvetica;fontSize=11;fontColor=default;labelBackgroundColor=default;endArrow=classic;sourcePerimeterSpacing=4;targetPerimeterSpacing=4;" edge="1" parent="1" source="Rva5wzU9HTMexQS1WgZx-25" target="Rva5wzU9HTMexQS1WgZx-27">
          <mxGeometry relative="1" as="geometry" />
        </mxCell>
        <mxCell id="Rva5wzU9HTMexQS1WgZx-25" value="" style="rounded=1;whiteSpace=wrap;html=1;fontFamily=Helvetica;fontSize=11;fontColor=default;labelBackgroundColor=default;fillColor=default;" vertex="1" parent="1">
          <mxGeometry x="30" y="70" width="160" height="150" as="geometry" />
        </mxCell>
        <mxCell id="Rva5wzU9HTMexQS1WgZx-1" value="Docker file" style="rounded=1;whiteSpace=wrap;html=1;labelBackgroundColor=none;fillColor=#00FFFF;strokeColor=default;align=center;verticalAlign=middle;fontFamily=Helvetica;fontSize=12;fontColor=default;fontStyle=1;" vertex="1" parent="1">
          <mxGeometry x="40" y="80" width="140" height="40" as="geometry" />
        </mxCell>
        <mxCell id="Rva5wzU9HTMexQS1WgZx-2" value="&amp;nbsp; &amp;nbsp; &amp;nbsp;Docker image" style="rounded=1;whiteSpace=wrap;html=1;strokeColor=default;align=center;verticalAlign=middle;fontFamily=Helvetica;fontSize=12;fontColor=default;labelBackgroundColor=none;fillColor=#00FFFF;fontStyle=1;" vertex="1" parent="1">
          <mxGeometry x="320" y="80" width="140" height="40" as="geometry" />
        </mxCell>
        <mxCell id="Rva5wzU9HTMexQS1WgZx-3" value="&amp;nbsp; &amp;nbsp; &amp;nbsp; &amp;nbsp;Docker container" style="rounded=1;whiteSpace=wrap;html=1;strokeColor=default;align=center;verticalAlign=middle;fontFamily=Helvetica;fontSize=12;fontColor=default;labelBackgroundColor=none;fillColor=#00FFFF;fontStyle=1" vertex="1" parent="1">
          <mxGeometry x="600" y="80" width="140" height="40" as="geometry" />
        </mxCell>
        <mxCell id="Rva5wzU9HTMexQS1WgZx-19" value="docker image build" style="text;html=1;align=center;verticalAlign=middle;whiteSpace=wrap;rounded=0;fontFamily=Helvetica;fontSize=10;fontColor=default;labelBackgroundColor=default;" vertex="1" parent="1">
          <mxGeometry x="200" y="117" width="100" height="30" as="geometry" />
        </mxCell>
        <mxCell id="Rva5wzU9HTMexQS1WgZx-20" value="docker container run" style="text;html=1;align=center;verticalAlign=middle;whiteSpace=wrap;rounded=0;fontFamily=Helvetica;fontSize=10;fontColor=default;labelBackgroundColor=default;" vertex="1" parent="1">
          <mxGeometry x="480" y="117" width="100" height="30" as="geometry" />
        </mxCell>
        <mxCell id="Rva5wzU9HTMexQS1WgZx-22" value="A set of commands and dependencies loaded when an image is created. Here you configure how the image looks like.&amp;nbsp;" style="text;html=1;align=left;verticalAlign=middle;whiteSpace=wrap;rounded=0;fontFamily=Helvetica;fontSize=11;fontColor=default;labelBackgroundColor=default;" vertex="1" parent="1">
          <mxGeometry x="40" y="130" width="140" height="70" as="geometry" />
        </mxCell>
        <mxCell id="Rva5wzU9HTMexQS1WgZx-23" value="A template for creating and running a container." style="text;html=1;align=left;verticalAlign=middle;whiteSpace=wrap;rounded=0;fontFamily=Helvetica;fontSize=11;fontColor=default;labelBackgroundColor=default;" vertex="1" parent="1">
          <mxGeometry x="320" y="130" width="140" height="30" as="geometry" />
        </mxCell>
        <mxCell id="Rva5wzU9HTMexQS1WgZx-24" value="In short it is a runned image, where you can run commands and apps.&amp;nbsp;&amp;nbsp;" style="text;html=1;align=left;verticalAlign=middle;whiteSpace=wrap;rounded=0;fontFamily=Helvetica;fontSize=11;fontColor=default;labelBackgroundColor=default;" vertex="1" parent="1">
          <mxGeometry x="600" y="130" width="140" height="40" as="geometry" />
        </mxCell>
        <mxCell id="Rva5wzU9HTMexQS1WgZx-32" value="" style="shape=image;verticalLabelPosition=bottom;labelBackgroundColor=default;verticalAlign=top;aspect=fixed;imageAspect=0;image=https://www.iconpacks.net/icons/2/free-file-icon-1453-thumb.png;" vertex="1" parent="1">
          <mxGeometry x="50" y="89" width="22" height="22" as="geometry" />
        </mxCell>
        <mxCell id="Rva5wzU9HTMexQS1WgZx-34" value="" style="shape=image;verticalLabelPosition=bottom;labelBackgroundColor=default;verticalAlign=top;aspect=fixed;imageAspect=0;image=data:image/png,iVBORw0KGgoAAAANSUhEUgAAAgAAAAIACAYAAAD0eNT6AAAAAXNSR0IArs4c6QAAIABJREFUeAHtnQfYPkV57u8EFFCRDgKioFJUVEQEFEUUY0NjiSamHBOTiCnHg0lMsMRojEkwRUPM0WBiwxgNasoJ9gqIFEWliaBIExRRBEUB5XjO3v53fPfbd8uUZ/ed3fee6/qufb+tM7+Znbl3yvMACiIgAiIgAiIgAiIgAiIgAiIgAiIgAiIgAiIgAiIgAiIgAiIgAiIgAiIgAiIgAiIgAiIgAiIgAiIgAiIgAiIgAiIgAiIgAiIgAiIgAiIgAiIgAiIgAiIgAiIgAiIgAiIgAiIgAiIgAiIgAiIgAiIgAiIgAiIgAiIgAiIwNoF9APw2gOcDOHjsh+t5IiACIiACIiAC4xLYD8D/AfAjAP+v8nc2gEeNGxU9TQREQAREQAREYGgC2wI4DsAtlUa/KgDc7w8DuO/QkdH9RUAEREAEREAEhiXw0wCeVXT3X9vT8DsBwO0PAJwAYKdho6a7i4AIiIAIiIAIDEHgCACfD2j4qyKAv68HcCyALYaInO4pAiIgAiIgAiJgS2APACcmNPx1IXAxgGfYRlF3EwEREAEREAERsCJwx+JGLy++2m82bPyrYuCjAA6wiqzuIwIiIAIiIAIikEbgp8ov9CsGavirIuD/lr0Ld0mLsq4WAREQAREQARFIIfBgAKeP0PBXRQB/31REmr0NW6VEXteKgAiIgAiIgAiEEditnKnPL/J64zzm/1eVqwzYC6EgAiIgAiIgAiIwEAF+cb+0/AJPbehvBfDWcrZ/6r0+BeDQgdKs24qACIiACIjAWhN4UvG1/RWjL34a/LlPSXN7AMcXwsKiN+G/C1Gx11rnkhIvAiIgAiIgAkYEHgjgFKOGn0v6jmqJ14MAnGnwHPYsUFDcueU52i0CIiACIiACItBBYIeyIb3NoFH+dmnU5/Ydz+MhZznwOoNn8h7HANis55k6LAIiIAIiIAIiAICN9AsKT303GDTCFA+vB7BjIFmaAX5jg9OgmLkCtEb4BACaKBiYCTpdBERABERgfQhwnP8Sg4afDfXHATwgER0n9p1jFB/OD+jrgUiMri4XAREQAREQgWkR4IS8Dxo1tJcBeLph8tmF/ztGqwXoW0BBBERABERABNaegJuB/0ODxp/GeV5SuP3dciCqFsMCnGSoIAIiIAIiIAJrS2Dz8qv6mwYN/48A/AuA3UeimTIscOFIcdRjREAEREAERCA7AkcCON+g4ec4/9nF0MFDVpDC2GGBt68grnqkCIiACIiACKyUwD2LSXn/YdTwXwPg18ple6tMVOiwwJNXGVk9WwREQAREQATGJLB1MS5/HIBbDBp/3oP34j1zCj7DAv+UU4QVFxEQAREQAREYigCN6jwbwNcMGn529/8nAPYi5BrcsMBXa+n9biF+XthjB+Cg0u7A5wB8BsBrAByca0IVLxEQAREQARFoI3BYYXL307WGMMaIDq+5oHD5+zNtD8pwPw3+HALgmYVp4ccBuFNPHP+4w+DQf1V8FvTcRodFQAREQAREYHUEOBP/xI4GLUQEXO9pvnd1qU1/8m94iCRaM3xD8UcXyAoiIAIiIAIikBUBuumlkRt2d4c08k3n0isfRQQn2M09XBrA63vl/Idt5g5F6RMBERABEZgGAZrvpfW9psY8dN/HANx/GslOjiWtH4by4fnfAPA/AdwuOQa6gQiIgAiIgAhEEDgQwKmRjVi94bsSwLMi4jDlSw5PZPclAD/fM7lwynwUdxEQAREQgcwIWLrppfnelw9ovjczdBuic7dEAeBE1FkAKCYUREAEREAERGAQAuxypn97Cze9NN97EgA2gusczjASAeT5inUGqbSLgAiIgAgMQ+DRRXfzF4waKy4PfOgw0ZzcXR8M4PtGXNkj8LzJEVCERUAEREAEsiSwL4D3GjVQNN97dAbme3MDTRsH3zJifCOAO+eWQMVHBERABERgOgS2A3B84V7Xwk3vreW91DC15/8uxbLH/w3gBwZC4Cntj9ERERABERABEWgmQDe9/ErnUjM3ySxl+9/Fmv57ND9KexsI7APg3YmGlH6n4b7aJQIiIAIiIAKtBB4F4Dyjhv+i0gxu68N0oJMAXRyfFpkX6gHoRKuDIiACIiACjsC9yhn5KV/67lqOZXOlAHsSFNIJcPJliCi7OUNPiekUdAcREAEREAFTAncs7sY1+BZuejlX4IQ1Md9rmgkeN6OYem4xNMNJlE5otW3pWEhBBERABERABBoJ0E0vre5Zuen9KID7NT5JOy0JULD9SYu/BfpPeKWsAlri1r1EQAREYF4EHg7gHI8vybYvzOp+mqL92XnhmURqaInxOQDeWS7R/NtI/wlbA3gqgN8H8MvqvZlE3iuSIiACIhBMgBb3/i1xdrlr/L9TGK/5IwBbBMdCF+RC4FcbbA/Q7fC7AOydSyQVDxEQAREQgXgCdyi6hf/UyNocu5nfBOAu8dHRlRkQ4DJBJ+aatrRF8PcAdswgroqCCIiACIhAIIGfAvBLAK7qqeybGoCmfacDOCgwDjo9PwI7Bxgb+nbZ07NlfslQjERABERABJoI0L48G+ymhjx0HwUEx4cpKBSmT4BzB0LLwOUqA9PPeKVABERg3gR2BfBmAOyqD63k6+fTQc2fAeDMc4X5EKB553pe+/5Pt8M0UKQgAiIgAiKQCQFOxnthMZubk/N8K/Ou8zgRbM9M0qZo2BLgUsGuvO87RrfDbwdwV9to6W4iIAIiIAKhBLiM69LESt1V+p8HcERoBHT+pAjQsqDL75Tt94r7vAwAJ5kqiIAIiIAIjEiAhndogCelEnfX0vEPLc1tNmL89ajVEOBcjk8alRuWnysB/KLmiKwmM/VUERCB9SLApVmvA8A1264Bj91yuddrAGy7XgjXPrW7AfiiQfmpljtOOuXkUwUREAEREAFjArcrnexcb1Rxv7+wJLefcRx1u+kQ2AbAG40mjDohwMmnbwFAgaEgAiIgAiJgQOBIAOcbNfyXAHiGQZx0i3kQODDB7bBr+Otbzg+gk6mt5oFIqRABERCB8QnQJOtJRg3/TUX0WSnLfO/4+Zj7EzkvgKLwCqOy5gQBbUjQ6ZRsSOReAhQ/ERCBbAjcqYiJlZteLts6EcAu2aROEcmVAGf0s9zdbCwEzgRwaK6JVrxEQAREIAcCnIV/NADOyndfUSnb0wCwi1dBBEII3BPAfxiVQVd+OT/gnyVEQ7JB54qACKwLgUcA+JxRpftVdb2uS7EZNJ2PAnCeUZl0QkBDUYNmmW4uAiIwJQK0qMYuenbVu0oydkvzvccB4BCCgghYENi87JW6zqB8Vsv1lzQZ1SJ7dA8REIEpEnDjrWy0qxVj7O//lvneKRaDycR5ewD0I2Bhf6Jaxj8CYP/JUFBERUAERCCBgJtxTQ9r1Yow9vdnARyeEB9dKgIhBA4AcIpR2XVlngapTgBAI1cKIiACIjBLAgcZmmH9ZmkYSOZ7Z1lUsk/UkwBcZiwEvqUynX2+K4IiIAKBBGgZjV84Fm56+bXErlhaclMQgVUSoKGfYwF811gIcDKserVWmbN6tgiIQDKB25dfNDcaVZAfBnDf5FjpBiJgS2B3w4msbliAW81rsc0n3U0ERGAkAuwitXLTezGAJ44Ubz1GBGIJcCkrXUpXG/HU31rZEpsbuk4ERGB0AvcurJ59wKgS/HbZxSrzvaNnox4YSeCnSxsU1xq9A05AyLZFZIboMhEQgeEJWC6T4lwBme8dPs/0hOEIbFfapLjVWAicBeCQ4aKtO4uACIiAPwHnppdf6+5rJWVLu+mq4Pz568y8CewL4H1G74Z7rySQ885zxU4E1oLAowFcYFS5yXPaWhSZtU2k5ZwYJwQ0RLa2xUkJF4HVEdinnKHsKqKULX2ny3zv6vJSTx6PgFsV8x0j0ezeO02SHS8P9SQRWFsCXHv/GgBci+8qn9gtbf//a+Ehjb4AFERgnQhw2eDbjfxfVN8/LhukOFcQAREQAVMCDwdwhUHDzwrrMwAOM42dbiYC0yPAd4DvQrURT/3NSYd/BeDO08OhGIuACORI4AFG1s6+BuDXAXCplIIIiMCmd+E3AVgvG/y63jUVLxEQAQsCpyd+peirxCIXdI85E+Dw2t8aDa9VexE+DeChcwantImACAxH4G6JjT+XQO09XPR0ZxGYFYH9imWw709856oCgL8534ZzDjTfZlZFRYkRgeEJPCixMnLL+4aPqZ4gAvMhwCW2Fya+e3UhwBU3LwdAJ0YKIiACItBLIFUAuEroYwDu1/s0nSACIuAIOCNbVs603LvoRPlPuQdpKwIiIAJNBKwEACufH5ZugXdoepD2iYAINBLYsXSBfZtxj8DHAXCCr4IIiIAINBKwFADuC+RbpZvgzRqfqJ0iIAJNBPguftJYBDizwjs3PVD7REAE1pvAEALACYFzZA9gvQuXUh9MgN32zzC0yeHeRWdWmNYKFURABETgxwSGFACsfDhD+SQAe4i3CIiAN4E7FmdyQt/Nxj0CXwTwBO9Y6EQREIFZExhaALgvkJsKiqzQtpg1TSVOBGwJ3LMU0O49stp+GMC9baOqu4mACEyNwFgCwFVclwA4amqQFF8RWDGBRwE437g3gD4/jpdZ4RXnrB4vAiskMLYAcEJAXyArzHQ9epIENgdwNIDrjIXANeV9ZcJ7ksVCkRaBeAIhAuB3ANDev2vEU7e3APgLAHeKj76uFIG1I7ATgDcA4Az/1Hewev1ZhZXCQ9aOphIsAmtMIEQA3AGAm5zExrtaeaT8vhrAswDIcMkaF0QlPZjAAwGcavge8h12k3ZpIlxBBERg5gRCBYDDQfv/9E+e0vDXrz0NACs1BREQAT8CFM3PLDwDXmn8Ln4XwAs1adcvE3SWCEyVQKwAcOk90nhykgyXOLLaioA/AfbOHWvk1rsqzCks2DunIAIiMEMCqQKASIaYnHR9aU2Q91YQARHwI0CPgCeWXfnVhjz190cB7O8XBZ0lAiIwFQIWAsCldfsBbJpfBOCx7gHaioAIeBE4AsC5xsMC8vXhhV4nicB0CFgKAJfqAwCcYlz5cL7Bnu4B2oqACPQS4LI+dt9/w/hdlK+PXvQ6QQSmQWAIAeBS/iQAlxlWPt8vbix/546utiLgR2C7smeOX/CpQwHV6z8L4GF+UdBZIiACORIYUgAwvVsNMDnJ+TvPkafiJAK5EtivWOf/fmMRQEHA3jktG8w11xUvEeggMLQAcI/efYDJSR/TxCSHV1sR8CbAnrlLjYXA94qns3duS+9Y6EQREIGVExhLALiEHgzgTMPKh92atGe+jXuAtiIgAr0E6Bb4GADfMXwX2RugZYO96HWCCORDYGwBwJS7yUlfN6x8vllWaJvlg1YxEYHsCew2QM8chYCWDWaf9YqgCACrEACO+7ZFl+FxhcUxS7PC5wA4zD1AWxEQAS8C7Jk7w1CQUwRo2aAXep0kAqsjsEoB4FK9D4CTDSsfZ898D/cAbUVABHoJDNEzRyGgZYO96HWCCKyGQA4CwKX80QAuNBQCNxU35sSkLdwDtBUBEeglMETPHIUAe+e0bLAXv04QgfEI5CQAmOrblWP5NxgKgUsAHDUeUj1JBGZBwLpnjiKAf1o2OIvioUTMgUBuAsAx3WEAs8IfBnBv9wBtRUAEvAiwZ+4LhoKcIkDLBr3Q6yQRGJZArgLApfpAAHQT7L4eUrc/KIXF1u4B2oqACPQScD1zNxq+i3yXv1wM+z2j9+k6QQREYBACuQsAJpo+z1lJXG5Y+Vxd2knnvRVEQAT8COwK4AQAdNudKsar12vZoB9/nSUCpgSmIABcgunznJP6bjasfM4CwCVQCiIgAv4EWG+cbvgeUgzIqJc/f50pAiYEpiQAXIK5vI8+z6tfECm/+TXD++3sHqCtCIhALwHXM0frfynvX/1aGfXqRa8TRMCGwBQFgEv5I419nl9frkDY3D1AWxEQgV4CdyzOYM+cpUEvigItG+xFrxNEII3AlAUAU+6Ml1j6PL8IwGPSsOpqEVg7AvcCcJJxb4Az6iVvg2tXnJTgMQhMXQA4RkP4POd65T3dA7QVARHwInAkgPONhYCWDXqh10kiEEZgLgLApZo+z99nWPmo4nFktRUBfwJu2aClQS8OC2jZoH8e6EwR6CUwNwHgEmzt8/yqctmgu7+2IiAC/QSGMOhFIaBlg/3sdYYI9BKYqwBgwp3Pc0vjJap4eouUThCBJQIPBHCqYc8cRYCWDS5h1g4RCCMwZwHgSNDnuaXxElU8jqy2IhBGgD1zlga9KAS0bDAsD3S2CPyEwDoIAJfYg4rZ/Z8y/ApRxePIaisC/gSGMOhFIaBlg/55oDNF4McE1kkAMME0XvIsAF8zFAKseB6q8iQCIhBE4K7GBr0oArRsMCgLdPK6E1g3AeDy29p4CSseWhO8i3uAtiIgAl4ErA16UQho9Y4Xep207gTWVQC4fLc2XnJTcWNaRdvCPUBbERCBXgJDGPSiENCywV70OmGdCay7AHB5b2285BIAR7mbaysCIuBFYAiDXhQCWr3jhV8nrRsBCYBFjtMHwNEArjOcH/BhADROpCACIuBPgO/MBwzfQ4oAt3rnzv7R0JkiMG8CEgDL+bs9gOMB3GZUAf2gvN/Wy4/SHhEQgQ4CXDb4FaP3kCKAf5wATKHPYQcFEVhrArkJABrvySUcAOAUw8rn6nIFAlciKIiACPgR2ArAsQC+a/guUgicDeAQvyjoLBGYJ4EcBMDeAN4G4FvlC063oh/JyCMfv0IuM6x8zir8FRw8z+KkVInAYAR2L1facMWN+5pP3f7f8p47DRZr3VgEMiawagFABd5mqpcv+vMzYWf9FaKKJ5OMVTQmR4Di+UxDEUARcT2AYwBsNjkairAIJBBYpQDgpLsv9bzIHIe/d0L6rC+1/gpxFQ9ZKIiACPgRcMsGr+2pP0J7CD4L4DC/KOgsEZg+gVUKAC6983lBX5UhZuuvkIsyGvLIELeiJAKNBLYFcByAWz3rEp/6Rka9GlFr5xwJrFIAsHvf54V8b6bg3VfI1z3T4ZPW/wawZ6bpVbREIFcC+wBgPeHzjvme44x65TQxOVf+itdECaxSALzY84WlG9Gcg/sK4eRF38ql6zyZMc05txW3nAlwwi6t/3W9X6HHLgbw2JwTrbiJQCyBVQqAl3i+qLkLAMeeXyEne6bJpxK6slw26O6vrQiIQD+B25UT+tomF/u8e03nqHeun73OmBgBCQD7DHs0gAsNhYDMmNrnke44fwK7AjgBAFfcNDXoMfvUOzf/crNWKZQAGCa73VfIDUaVjzNjus0w0dVdRWC2BA4qJth+yug9dKJBToZmW1zWK2ESAMPm9w7GZoW/qfXKw2aY7j5LArS++azSDLBrxC229PWR0zLlWWaeEjUcAQmA4dhW73wggNMMv0I+A+Ch1QfotwiIQC+BOxZn0F231YRdigj5+ujFrhNyJSABMF7O8CvkVwB81UgIcGzzTQB2GS8JepIIzILAEMsG6euD77eCCEyGgATA+FnFr5A/Lxyc3GwkBDjb+feLe3LegYIIiIA/gScA4DI/i+EA3oM9C/f0f7zOFIHVEpAAWB3/vQC8x7DykTXB1eWlnjxdAjT084IOnySh4oBDDAoiMAkCEgCrz6YjAJxrKAS4Xvkeq0+WYiACkyJgNWH3vyaVakV2rQmskwCgxb7fLUztvgXAOwHQx0AuE+noDIhxcy6RQ7866udzeOGVADjcoCACIuBPIHXZIN19K4jAJAisiwB4JAAuoas3lPz/xIzGz7cH8A8AuO6/Ka6h+64C8EwAnICoIAIi4EeAS/uuiHwHz/Z7hM4SgdUTWAcBcDeP8T16FMsp7AvgfZEVUJNIOAXAA3JKoOIiAhkS2NHAu6AEQIYZqyg1E1gHAfA3Hg0pu8zv3IxopXvp3ORSj/g3Nfr1fVw2yN6OnVaaIj1cBPIjcIdiVc6xHh8K9Xeq6X8JgPzyVzFqIbAOAoAvZNOLWt9HG/45Bs5SPsaocmKar5c1wRyzWXFaAQHn0vsazzqiXmc0/S8BsIKM1CPjCKyDAPiK58v9i3EIR7tq92KN8dsA/MgzPU2VU3Xf5wEcPlrs9SARyIsAe9csnXa5d0sCIK98Vmw6CKyDALjcs8GcihUvzlI+3TNNrlLq2nLZ4N07yogOicCcCDwYwMcN35/6uyUBMKfSMvO0SAAshgemIgBYJNl1+WxD5yY3FSsPXlJMgNpy5uVdyVtfArSNweW/IT1o3wfAnrJ6I9/1vwTA+paxyaVcAmDxck9JALiCZu3c5MrSa5q7v7YiMHUCXFrLVT6hDoDYM0ZrnS+TAJh6EVD82whIAExbALh8vReAkwIrqq6vmI8C2N/dXFsRmCABN3n224HvBZ110XWwCxIAjoS2syMgATAPAeAK5pEAzg+s8NqEAI0RHQ9gG3dzbUVgAgQ4PPaMohH3nfzryn+bW18JgAlkuqIYR0ACYF4CgKWAZoWPLkwLX2ckBGhBkcsQN4srYrpKBEYjwKW8n40o96d29HhJAIyWfXrQ2AQkAOYnAFwZ4tgnv+Bvi6gQ3VdRdXsOgMPczbUVgYwI3AcAx+yr5dXnN31vUCx3mcqWAMgooxUVWwISAItKY4qTAH1KwwEAaArYp0LsO4czqN8KYFefB+scERiYwB5leaSVy76yWz3O819XCOTtPOInAeABSadMk4AEwKLisBIAHINko/tUAE8EQAM+OQQaPgkdF61WmtXfXDZIv+db5JAwxWHtCNypLH9cplctlz6/Pw3gkABiEgABsHTqtAhIACwqEAsBwEl4lzRUSvQRfpcMisZWpc3z7zbE0afyrJ/zpVLkZJA0RWENCNyu7LK/NqL8urksFOghQQIghJbOnRQBCQA7AfAIAJxJXG8k3f9fzMjhEHsl6BgoxCiKS0fT9sPFMkSOwyqIwBAEOEbPmf1f7ni/msol96WuZpEAGCJHdc8sCEgALBrs1B6Acz0qp5dmkeuLSBwM4EyPeLdVrtX9bhlVjl4VFynWr6kReAiAT0aWUZr8vV9igiUAEgHq8nwJSADYCIB7elZQXKKUW2CXKA2ffN0zDdVGv+k3PatxZnVoV2tuXBSf1RLYL8G4lTPm0zW73zd1EgC+pHTe5AhIANgIgEd5Np50xZtr2DbSZGqTCOA+2kQ/NNfEKl7ZEtixXL7Krvu2stW23/VCbW2YOgkAQ5i6VV4EJAAWlUzKEMDjPCur7+WV/Y2x2QfAyZ7paauI3X7OMeBcg10an6SdIrAgQL8WxwK4MbLscR7KvRe3M/slAWCGUjfKjYAEgARAW5nkEsamFQ2ucQ/Z0h47rQnSSqGCCFQJsEz8VsIQFCfXHlW9ofFvCQBjoLpdPgQkACQAukojl12x4b4h8qusLhJYWT++64E6tlYEaLr3vMiyxaWsY9iikABYqyK5XomVAJAA8CnxOxibFXauVn2erXPmR+DBAD4R2fDTit+Yw0oSAPMrf0pRSUACQAIg5GU4EMBpkRV3vTfg1lJU0KqbwnoQuHui/QkuWQ2x4mdBVQLAgqLukSUBCQAJgNCC6YyyXG4kBCyXbIWmReePQ4A9SMcBuCWyzKyyjEgAjFNG9JQVEJAAkACILXZ3KC7kGOzNkZV6vUeAXcL3j42MrsuSAMsIZ/bHziHhqhkKB4teooMKJ1YnlIav3gvgOQAYv74gAdBHSMcnS0ACQAIgtfDetezWrTfoMf+78d2dUiOl61dKgEagaLr3sgRxyHkiexqkgka63tMSD/Ys/HzPMyQAegDp8HQJSABIAFiV3iMKD4g+5pB9hAENJnH1wWZWkdN9RiPAmf2fa2lwffL+HAAPN4gtTVK/ynPY4fkdz5MA6ICjQ9MmIAEgAWBZgp1Z4W8kNADVRoINyeGWEdS9BiNw30QDUs5bX6ro4/Xs3g8xbU23wju3kJEAaAGj3dMnIAEwTQHwQADvBPA1AJxNfxWAfwbA7s4cwnYJ5lyrAsD9ZncwZ5Ar5Edgj3Js/bZI0efM925jkDT2QsX2PtCaZ1OQAGiion2zICABMD0B8PSy0XeNY3VLM6oPy6hk7gvgfZENQzVd/M0JYZx0uGVG6VvnqFDkcYJeyiRQKzfSdzOYh9JmClwCYJ1L+czTLgEwLQFAm/o39TSoV2bYSD4JwKU98a43+G3/M330XqiwGgK0DklvjynDPBcbme+l/wCrlSgSAKspT3rqCglIAExLAPyBZyP61BWWqbZH376c2Bfr7KUuCD4KYP+2h2m/OQFn/+HLnmWwnl/8nz4huCyQZSEluLkmHAJrek7MPgmAlBzRtZMkIAGwqEDaKgCfjB3LG+BbPSs8fhXlGnYrx4y55C+moq5eQ5exxwOwGD/OlVcO8XoogNMT8sst72ybaBeSxpRx/mrZqf9ue/81BBCSOzp3UgQkABaNUFsF4JOhYwmAtvXM9crs1T6RXvE5NMyS0qhU02w1g3zFSLJ7/H4ATkpo+JlHHwfwAIOUWYzzV8tM/Xfb+y8BYJB5ukWeBCQAJABWWTLZlfvscjVDvUKO+f9sAIeuMkEzeTZ7abiqJHZmP/PuKwB+zoCH5Th/V5mSADDILN1iWgQkACQAciixW5dGW7iksauS9jn2o3JGOBsxhTACzIc/K1dc+LBuOoduel9sMBF1iHH+pvi6fRIAYWVFZ8+AgATAosFpqwB8sllDAD6U+s+5l0GXs6vQtWywn7c7w83sT5lU54TXru6mCdtHJqznZ/5TSP4NAA4NufLQt217/zUEkJCRujRvAhIAiwqirQLwyUEJAB9K/uccWXQfnx9QeXdV7lo22M2dpnsvSGR9htHQi8U4/0cA0CohwzUB6Wp7/yUASpjazI+ABIAEQK6levNyvfl1AZV4lxDgssH75ZrYFcTrEACnJLJ14opLBFOCxTj/l0oHRNV4SABUaei3CNQISADLRfgPAAAgAElEQVRIANSKRHb/bl8u9UuZkOaEAZcN0iXsjtmlcrwI7VMOs7DL3nEJ3dIYlYVVRotxfheXLRoQSgA0QNEuEXAEJAAWlWBbF6Bj1bXVEEAXHZtjBxh8sbqG7ltr6G1wh9J07y0JDb9bz0+LlKkhdT0/BQyXKNIXQVuQAGgjo/0iAEACQAJgai8CzQpziZlrzFO2XwDw2KkBCIzvHUrrezckMuMQSi7r+T8D4DAPDhIAHpB0yvoSkABYNCTqAVh+D7iU7veLr6w3AnhT2ZDsuXza6Hu2KuPCJWcpAsBdS2+De42eimEfyO71ZwC4PJHRJQ1j6zExtxjnDzX4JAEQk1O6Zm0ISAAsGhAJgI3F/teKRrbJ0xvdtz5/46kr+2/3cs1/yni2EwH0CU/vdndaWWrsHsyZ/Z9PbPid3f6msfWQmG4G4DkAvp4YHzqTunPIg7UKIJCWTl87AhIAEgBNhZ7js322+nNyOHQwgDMTGxgnBL5aehtMndnexHXofXyfP5bIwY3z52a3/7MR8NQDEAFNl6wPAQkACYCm0s611K5BbNt+runCFe5zM8pTvzRdes8CwKVyUwicCMfVDX2izaWtbct8v79Bgi3W89fjKAFgkDG6hQhUCUgALBo6DQFsKhnssvUxyctu9+2qhSmT39sazHZ3jY/7GraY9T4EHi6R5LBF01CNS4PP9uKMxvnb4isBMEQJ0j3XmoAEgARA/QVgo9JWCdf3c015roFx4+S+epxj/nfj4al+7K1YMR5HA/hGYvquLydTpqbL9b6kmBLuyxcJAKvSo/uIQElAAmDRQKgHYFOhoJGcvsrYHb/3BN4kToi7MCBNLm1NW34pH7XCNHNeAmf2c0JcU/x89zmDSDsZpCV1Pb9vnCUADDJLtxCBKgEJgEVFKgGwqWTMTQAwVfzC/UMANyY2nK6x+i8AdFw0ZqCQYSPo4hC7PRnAfgYRv2cxX+DfE+PDFSXnet5jKgLgimLJLOdAKIhA9gQkABYVqgTApuI6RwHgXkRawzs+0c+9a3jZePFeoUvTXFx8t+xlocU799zY7UVGvRcW6/mZBq5W2L+0yOiTpqkIAKZlTktKfcupzpsgAQmARcUqAbCpAM9ZALhX9EAApxk0qqzsudSM4/EcB7cMtHHAmf2pPhCc2WM6V0oJVuP8bpmli8sxnvkwJQHgBI1L6xSXlLr80XbGBCQAJADqxXsdBIBLM80Kp1rKc5W9r3la9+y2LQ0R0dEOvyLdvWO2roeCqyJSg8U4P1eWsMekbmhpzgLA5dsnANCXhYIIZEVAAmBRyaoHYFPRXCcBwBTTVj4b3NSldKzsnYOamDHg25U9CRZ2DD5cDBvcx6CmsVrPz9UY92iJzzoIAJYNt6TUwsBSC0rtFoEwAhIAEgD1ErNuAsCl/66lWWH31ZaydS5qt3Q379myJ4L+7FOeyWvp3OjxPc/yOWw1zk8/Ak/oeeC6CACXt7ktKe3JHh2eM4FVCoAXeVZ4pyRmgG8Xr3oANoFeVwHgihm7u31nprtKvW375R4DO4cCONXzPWh7BveHOslxaa1vrcb5nQDy8SOwbgLA5SOXlPaJo3r+6H8RMCWwSgHwXM+Kj0uNUoIEQBi9dRcApOUawlRDO66ypyvd+1WyYd9yZn+qEyM3zr9N5d6xPy3G+ZledveHDIGsqwBwZYPDNVOwpxFbrnRdxgRWKQBYIbqXoGv7B4n8JADCAK5CALDB5ZIwrnXnV7Fv13lYysLPplXE1wKg4ZyuMupzzDXWrze637s7xtVDUmo1zk/fEA8PeXB57roLAJadWwD8ZcMEyQicukQE/AmsUgAwlu/rqVj5BZZqb14CwL888MyxBcAvAKDxlGojyi7kPy/+ODEuh8Av9r6yWo3/kL/PAfAIAyhW4/w0J8xGnD4kYoIEwKLsD7WkNCZfdM0aEFi1AKAp0k/XKn9XeV4H4KEGeSABEAZxTAHwGy1578rAO8OiPvjZnKyXaobXpS106xqH2IbWwXHDG6l2+61mtUsALASAKxOsEy3qPpfn2opAI4FVCwBGigZKOAHvX4svm48DoJnVPwLA7leLIAEQRnEsAUALepwR7Sq9ti2HBXIKHJ54MYDvesS9LU0h+2kPgL0h9fXzMUysxvnZQHGoxiLMRQB8r1wGGpK3XedyfshbCmNQu1pA1j1EoIlADgKgKV6W+yQAwmiOJQCe5tmA/mNY9Ec7mxUzLfXxS7irIk85xgl1exmkyGqcn70G1lYP5yIAONHzIACnG5cHt6Iil3kxBsVRt8iFgATAovLWMsBNpXIsAcDJnT6NI2dJ5xyGqPRpVTBmQl2dE3tZXlVOMvNh3XXOqwfyezAnAUD+zmPjlZ7lu4t59RjtRNATpIIImBGQAFg0QhIAm4rVWALgJZ4VJNfJ5x6sKv2rjb6wrcb5qw0QLSYOEeYmABwjq0mW1Tzgb/Y0cMWMgggkE5AAkACoFyIJgDoR//9jK32OHx8HYGv/R7WeaTXOX294JAAWdUWdjWuYmzKFbqMtvDlWn8llqRx+4ruqIALRBNh9WS1YXb+HqgCiI+95oeYAeIIqT5MACOPVdDYr/ZM93623A6AZ4tRgNc7fVgcM9f7PtQegnp+PKU01t/GN2c9l0pyTkboypB5X/b8GBI4KtD/Or5spBgmAsFyTAAjj1XY2rbv5VOocp08Jsb0OPnGrniMB0J2f7JrvC7RrQcHjs/qlyr7vN10lH973cB0XARKIdXrCQmYxMWnsXJAACCMuARDGq+3soQXAEOP8XQ2NBEC6AHBlhUuc6Rr5Nk+R2JUv1WNcNbKne4i2IlAlwBf4TxPdnnJt6jsA7FG9cea/JQDCMkgCIIxX29lDCoChxvmrjUn9twSAnQBwZeYAAJ8wFgGcT/KyYvXHVu4h2q43ATdD+TLDgkbjJJy0ZGGcZOjckQAIIywBEMar7ewhBIDlOD+7rH81oE6QALAXAK7s0MLkVwLyoi7Omv7/anHPZ5XLEt1ztF0zApzlf5pxwaoWtikUMgmAsEIvARDGq+1sSwFAEf97ib137r2li+Inl5HOYRXQukwCbCsnbj+/2I8dwMIkexjY06CwRgR2K81IprobdZVG35ZrtR+YKV9f3+5PTYj/4zxFFrvnUsJ7PJ9Doy2xQQIgltzG6ywFAD3F9b2DfcdZ9l5e87QoAbDg2mYHhN3pfWx53GcS4MYS0vwfh1c5zGpZd3OuAS1q8t1WmDGB25ezTG/0LLQ+Bdv3HOccZJfM+L7GkwU9vsUGCYBwcnMyBNSUeisBcJhn+W17T9mQ/AuA3RsiKQGwaNxzEQAumw4GcEZi3tfLBFcfsJeB7YTCzAis0lNZtaDRSQq/NLbIhC8V9Xd6XqSzEuMqARAOcBUCgI0pjbJwPsy1pSfKPx7IxK2VAHhrT9mtvnv13zQpzDS3BQmAfAUA88yt9Ph6Qhmolwn+fzGAJ7QVCu2fFgF2vVvPJG0qNKH7LsnIdjXHPG9teYmoiu+XmOUSAOEAxxYAHGtuc9zDCtHa65qVAIh5tylunlM2IF05IwGQtwBwecfJ1vyouqWlDgutm9359LPBcqowQQI7DLSW1BUOqy0LWQ62q9mlxsrUja1xJQO/Bmm1LTVIAIQTHFMAsKFra/xdOX9veBI6r1iFAHAmYlk3+AQJgGkIAJeXewPgWn9XZi22PyjbkVSDVC6O2g5MgOM3LwBwg3FBYGGiM5JnF0rzhcazUVnIODFt24HZ+NyeltNoDMlyHEwCwIf8xnPGFABv8HxXLI2orEIAcLJgSJAAWDSmuc0B6MpHWnFlr5WFAHD3uEbLBruQ53Hs0UW3+oXGGc8C4Nb1V1XgEP7Ov1VOUpyb7WoJgPD3Y0wBwLFwV9F1bZ8WnozWK1YhAF7RGpvmAxIAi3IxJQHA3HRmha0/BPmuPLS5uGjvqghwhjq7KLsqr5hj7A5nN3jXlw8ridONn/25mdmulgAIfzPGFACcj+LzfrD3yypIAPiRlB0AP05tZw0xFOzahSlZfG3jM+n925XjMxzb86nAQs45G8DDPOk4a4JXGMeD41l7ecYh59MkAMJzJ0cB8OvhyWi9QgKgFc2GAxIAG3BE/3PgAEbfbipiU7cdER1BXehPYPPSzSPdPYY06j7nXpUw1jOE5zE3/GDhC92fsO2ZEgDhPCUANr3b1WG3JoohqwA0BLCRIMe1fepEnjO1IYCNKV38x+XgvtZPfdl8KaMVXYuUzvTXkQDOCyi4vplIS2BW9vvvWQ4d+D7b5zxOQJyq7WoJgPCXUQJAAoClRj0A4e9O3xX028Avd35c+dS9vufQ2mEOK7r60j/J41ziwfF438zwPc+N59CRiHV41ABihUMTD7GO6MD3kwAIBywBIAHAUiMBEP7u+F4R6/q9q21xS01lVtg3F3rO49I4fplbG3lgJtKU5KE9z0897IYrrjMULxQtJxb2q++SGrmRrpcACActASABwFIjARD+7oReQffRnzesn9m2zHVFVyjb6POHMvPIzOFkvbG707cfYMKim4SSi1nhtsyWAGgj075fAkACgKVDAqD9HbE84tobWons+sIPPTa3FV2WzFvvNYQiY8Y5O/xbtj55+AP7Fb0OHzAuZLlPQuG8DZ8Xh2t2U4K8AcbR810GqFUA7eWY48pDBAmAIai235Mry9jj3GYa3aceazqHK7q6lpO3x2iNjtyjsDvvW4k3QW7bR3ePrwewU0Ysn146XWmLc8z+D2Zqu5qixyc9FyTmj2/ZkTvgjaAlADbycP/JENDivZ3LKgCXt33b+xaOomim3afe8j2HE80tRXRfGiZznEvcaKZziHF+Noq5zszcqrDB/lIALBi+hajvPJoV/rtiuIFKNpdAOwlf9kjjqxIjLAEQB1ACoJmbBMCiXlo3AeBKxFMAXOpRd/XVy+44fW7I02BJl+MutC4Wsh7VgezbXlS4M6VN6CkEzkb914ojnr60+RznpMPfApCLWeGn9qSPyxxTe2gkAOJKuwRAMzcJAAkAlgzOsXqRof8XutvOpV5uLvkj7KUf7k8bKivXKHL25fNKW9AjJMP0EbQ86GuX3aW3b3sugEeaxjL+ZvyK+GZDnjPNNOecGiQA4ghKADRzkwCQAKiWjN3K1VdchdVX7/YdZ9lay8D19u/o+Rrsg9d03HV9c7b9lAN7RX6z+Hr/ukEhq3J6dyZmhWkt8WcLb43PB/A75TJMDhFYBAmAOIoSAM3cJAAWDd26DgE0lYw/NqibObSwVoGzZI817EapNm6crMFJG3MKzqyw5bwIzmw9HsCUzQp35bEEQBed9mMSAM1sJAAkAKolw9LCKyeBr034OQC0sV9ttC1+0yQwXQDPOQzh6fCrpW1vqy/vXPhLAMTlhARAMzcJgEWdvc49AHcaYJL6WggAdmf/8wANP401PHfNJlJw5ugXjVl+qnCj/ODmum+SeyUA4rJNAqCZmwTAegsAfiDRYNwQk9TXQgC8zLjBYnc4l4r1eQhrfp2nv/d2xRDKHxTj5zSYY9GDwntwWcqbAew6fTzeNiRkB2BjZksAbOTh/pMAWNQz69YDcAiAMw3r2Xp9PXsBsLOxt6V3FTMwaShIASDbfyob73rBiv3/O+UcjdzNCnflv3oAuui0H5MAaGYjAbB+AoAfQm8dYJJ6vV6evQDgLMd6omP+5xKxw5vfz7XfeyCA04w4u7yhwZ4nT5SsBEBcxkkANHOTAFjU4XPvAeCHzwsB8EPI1YVDbmcvAH7JACSHEDiPQKGdAMepfnGASZZTXFkhAdBeTrqOSAA005EAWDSGcxYA/ODxsVRqKQgkADwEwvcLAfAKAEM52mh+7ae5l4zIisysCip9W78WwFRsK0gAxJVdCYBmbhIAi7pkjgLgPgA+ZFhf0sus77JtCYAA8FeWX7lzW7bWXO2k7b17YROB8yWsRADvQ+t9vwtg87SoDX61BEAcYgmAZm4SAIt6ZE4CgH5SaA+FHzgW9eTZAJ4EgLZbfA24SQBEwOd4N8e9FfoJDOFS+fxizgFd++YaaO3Q54XWKoCNOSgBsJGH+08CYPE+zUEA0P4+/aPQT4pPPdF3DpcHcplg9cNUAqB8eyzmADRlAO0wn1i4993FvaXathLg/AkWUNpNaGIZu4++rWkVK7fga3OCpjxjw44BLO8d+5Di6+Qlns85NeEZ7lIJAEdi41YCYFFvTF0APALA5z3fqb56kWbn2YPQtBxdAqB8h4YSAC5zbiqe8/LSU9PG11b/1QlsC+C4wqMVTQE7fqnbrpeg/vyx/n+OZ/pSrEdKANjkJsWRTxlsqmSrMfiE5334LM6RCQkSAIs8mqoAoKdVfjBaOPBhGeLk6C5hLwFQvmFDCwBXefDr5Rkhb/UanzuEWWF2gx2dyWoNmuzss9r12cS4SgDYvEASAH4cj/EUOCzXoaHvXXF1LLdTEwCcFM0PRKtJ0Rd7upeXAChL4VgCwBXSKS5bC31hrc7nF/AXPCsWx7dvS3sNdPG86kALXm1jfJcCuFdiBCUAEgGWl0sA+HGUAPDjVD2LE/IuN6rfvh1oIE0CoMyJsQUAGyjXLb1NtTTodyMBmhVm5XKj0YtC/uxmOwkAXT6vMuxUWEl8KYCPAqAweX+Rzt8DwB6C1CABkEpw0/USAH4cJQD8OPEsThDnnJi+jxWf4zSRHjPXTAKgzK8QAXCbsVlbZsJvJnb1+he7aZ9J05dvMRwj48v13UKMvbiYd7DltNE0xl4CoBFL8E4JAD9kEgD9nDgh3NI0+icBcP5HTJAAKKmFCADOUh/CrC3HxR4ek4treA0LPAu+jzr2PYf2G7gKYU5BAsAmNyUA/DhKALRzcr2YVs7Rrm5Y1tf+9OYjEgAllxABwDFbBq6n5IQ+q/Eb11Bx2dqe5TO0aSfg+NOilWNnsf04gAe0P3ZSRyQAbLJLAsCPowRAMyfOY7rAqJ7i6igu69u6+VFBeyUASlwhAuBbNcRuBufNRhnMRux75VI4i3HgWnRn9+8Q/N2YGj0ZTjlIANjkngSAH0cJgI2c9i665/lBZ/FhwnvwXpZeZiUAyvwKEQDswmkKzJh/N8xsZjh7F7RssIn28j4a+/lPY/4Ue8+bgFnhZRqb9kgAtJEJ2y8B4MdLAmATJ07s/ptyordF48/egyGsmkoAlOU6RADQBWNXeCSA84wbIhoQmUu3dBc7i2OPGoD/FwE8wSJyI99DAsAGuASAH8d1FwDOmqlvw9onDq4vl/Xd3g9/8Fm+8ZQvgEqDTqt+fYGOaGhw5huV6/oyu+/4XLql+9hZHHf829bY97FuO077DfTKNZUgAWCTUxIAfhzXWQAcDOAMo/p+rLpeAqAs1yE9ALTW5BvomtbSkxMbJmfsYShV6Ju2KZzn+HPpZlujHrrf2W/oM/uaAx8JAJtckADw47iOAmB3Y/O9Y/b2SgCU5TpEAHAWZmjYD8AHDBshNlo09zjFbulQdhbnP9DQ6IYTDOxdYIVHr125BgkAm5yRAPDjuE4CYKuye55Dwq5OSNl+1WBZn18uLc6SAChZhAgA+mWODTT7+BWjAuMKW5/Dh9i4zvE6S7Objv85AB6WKawtAowm3T0hDfIGuKkR6OsVkjOgTZxCfAHQUuYbAo2vDe0LwLIeZ48ynZ+tYsWXBEBZ6YUIAI7PpASnHGmBzjUiqdspdUunsLO4dohlg8w/LtFJaUQt0tZ0D1a2feWLJpY5byI2SABIALDsWPYApMzjGUoAsCfIsieXdcZesS8dgMPL1QZvLdnvEHgvCYASWIgAYGVqEazHjhivnLzdWTAa8h57lGN3fY1jyHHab6BXL4q8XAKXkfalgV9YKUECQAKA5cdKAHAlz/ke5batXFsLAOu5RBcVEwYfm/DCccLhpxr4sDeBbqR96x8JgDITQgUAl3tYBWbmmQ2Z2Va4ffbn4u3OitGQ9xli2eZVKxjP62L0Fx3l68sAOFcgJUgASACw/KQKACtRbiUAUnohmuppLusjo9jeNl9fKBQHfcNRzC8JgLLWCxUAsRnYVslarx9l4cvF211bmnPab/2iu5efY74HZJLQp9bsI3AIil/+qY0/kycBIAHAchArAO4I4M+LSXVW1lQf1/LOvaxDCLt3llt65rS0J+KW9XE+Q0zgXJ4XAgiZcPhKjwdJAJSQQgUAM2SIsC2AvzO0IMXCzIr+RQCGivMQHFZ1T76gJwROOKpWHE2/uQTxHwHEvvzWLO5SzlWgcxKrIAEgAcCyFCoA6M+DdS9nwDe9OzH7vgaA83yagq8A4EqvmGc3XUMxsX9TZDz3ccIhe+ma7t2172yP+0sAlJBCBYDvGItHHjSesg+A90ZkeleBmKO3u0Z4BjuHWDbo7DfMUYhJAEgA8LULEQD0qGrt0ZNf2k/reP99BUBXPep7zA0DdkSn89B9AXCFl+/z6udRVPUFCYCSUKgAYJfVGIFepL6QUAjqhYL/f6zwWXD/MSI/g2cMsWyQ9hueOAM21SRIAEgAsDz4CgB29bOxbqqfYvexp7PPnfcYAiB1IvB25bLA1F4INu59QQKgJBQqACxcMfZljjvu/EhzqVbsy1G/jrYM2NWdS7e0S2uO26GWDVLdU+XPIUgASACwHPsKgHp9lPo/nYD5eMkbWgCkLAV288CszMc7t/Vd9YsEQEknVADQ29PYgTNArcenU2eljs1glc+zmqFcreyc/YZVlCdLlhIAEgAsT2MLAPaOPj6gIA8lAGhr4+EB8aifypVI5xp+4LGOYd3eFyQASkKhAoDrQlcVDikK/VnGhYXeC1kIFfoJcFiG7jmrDXnqb76Iv1Gs4bVcXtqfErszJAAkAFiaxhIA3yyfFWKGm/OqrJz1uPedX+t0+hb73g7xUeHixh7jviABUBIKFQAWS6f6MqfrOGfP0sALJ/a5DLfYsgvLpyutK27rcGyoZYOpXxKrYi8BIAHAsje0AIjpMaOJXRrnusWwrnRDqLHtwFDDitU2gHMi+oIEQEkoVADs3Ed2pOOcjMjCbbV+lgWIk0/owXDMeQ4j4TJ/jLWFMPcCU4jtaR7b4W4oASABwNI1pAAIdcXNjyROCvRt5Ny717dNWdbnPtyuMBQjbfH18Vrry+bpw1Udedw5VABwLXVO4V6Fn/qTjAvV1YndWznxGTouNPZzqjH/VToJCeUlASABwK9hCte2Bil2P8fGjwwskLSuat3dz7X47HWNDQ8aYNljF1Mfr7USAGVuhgoA2vHPMfBFSbGh3VSgaFDiITkmNsM4DbFscBVuQkPRSgCsrwBws9c567yp/ojdFzPOP4R/Fbesb8vQl6I839d8rw8nduv7OiOiAbK+IAFQEgoVAJy8kWsYYnyaZoVPLCza5dbzkWMeDDW+x4mfh+aYYAB/6Fn50wZFarjE81m/nvqgyvX0AudTQffZX5+bO2B+aVtPSI4Z53ceVkNM5fblZ6opdcvl29W4PNOzLDJ9fUECoCQUKgBydPtaz+whxqdvKh7COQdztGZX55f6/10H8DbobIrvkho54+vpZ6CvQuXxfzF4rgRAM0R2MfvkAc9pM5XbfOflvfyq5QcBGybfZ/qcFzrOz5ix1+0rxvE4p7DCd9hysr33xJrvbWLEuDys8uQQAdC3OkECoAQbKgBSfDhX8nKUn0OYtf1S4njYKAnP5CFDeBtkV2BOQoxfYLTB3lSBVfe1eWkLySoJgGZaYwgAy6/aarkIXc9PAuyV8e0Orz6r63fMsEM1N/YF8D6P96ArDu5YW1xCBECfvw8JgDL3QgXAPau5PpHfVKWXGRVOV0g/kujoYiLokqM5xLAM84CNYcrEpOSEVW5AD2zsvnVlo77ll0xfhVS5XetPCYBmNEMLAM4vurAjf+v57fN/WyPXnMJNe4fo2YwZdqjG0cp8L5lxiSFXYbUZBwsRAH3zFiQAylwMFQA0KjHFwK6/Y0sPgT4vqM85qWtip8gxNs5DVF7Mo1zMCrORaFrixKVTVvNHJACaS99QAmAIYzUxDe5QIjrl3XETIK3M9/osMQwRAH0+ayQAyncpVADs1/wOTmavG5+2HMP7VoR1rskAM44olw2eYvw1xUqVpqJjjZNYJZHzQ36uuBmHKH6v6BLlRDHLIAHQTNNaAHBYx9rGiBOr92lOQuveRxVe/mit1OeDxPec1GFMS/O9IUsMQwRA36RUCYCyyIUKgNAC3FqyV3zgEQA+b/xifa7wOHj4itM1lccPMSwzdyEmAdBcui0FwBDlMmacfwj7JqkTmWkp9T2GdSZFe8ik6hABwB7HriABUNIJFQD7d1Gd2DHXjXWtYaGmCp+aNbtVZZtbNkjDP75fLz7nzVWISQA0l1QLAcChzfcbl8OYcf4hLJyytzNlKbN7Ty2trvI97nNhXM/tEAHQ1xsoAVDSDRUA96/nygz+t5zI4hqoKVmzW3UWumEZx85qSyE2pVUrffkgAdBMKEUAuAY31Qd9tczGjPM7U7nWPk4+DeChzdh697o4Nc1tqaY39veQAqBvubAEQJn9oQKAS+vmGiyXsriXYgrW7HLJzyMGcA3qhNgc/DtIADSX1BgB4Ozl+yzhdO+yzzZmPf9BAE437n24JtGcOZl+0jhOdX5DCgDaa+gKEgAlnVABwIIx98BxwEuNCz+thtGdsUI3ATfj2Wp2sat05iDEJACay06oAOBHjHXjFjPOv1s5eZVGrlw5Td263oe+SXDNJAE2nBybt4xTW5qGFADsVewKEgAlnVAB8OAuqonHOCGEVqieUlqA6lvLmfi4zstvX87stzSxmas1u04QKzo41LLBKft3kABoLowhAuAtxo0bhepzAWzWHLXGva5uod/6tsYxZj97H2gkKCYMZeioKx1DCoA+i7USAGUpCRUAQ9hkZ3ccbarfUHsh+IK8EACPryrQyQbNuFouG/x2kdbnGxmHWRWXsZ47xLJBCrE3AszIgy0AACAASURBVOgbJxwrjb7PkQBoJhUiALoapJBj7ku7zWhNc0wBmo627l28qPAA+Ni2B3rs5wcXl+OFpL/tXK408J3UO6QA6DNYJwFQFoxQARA7oaSrHP5VT+F7ddfFIx1jz8eneuLZ9lK07b8YwFEjxX/qjxlieVbqsqixmUoANBMfWwDEjPMPMb+IHxI0bhaylK5K0DpOnHTLL29f/wRDCoC9qwlt+C0BUEIJFQBV5wwNXIN3cfkN3Te2NZLczy+22K6t4Ah1XJDTxKGOaM72kPN8Rn8AXeUl9FiqYZSxgEsANJMeSwDEjPNzhRHN29JqaGi5bDs/dSjRetXTF4uPo8dUsiYHAdBnsE4CoMywUAFgbejG153qiyoFbNU/3dKhWwxf6tguxVWzWMXz3bJBy2EZVrb073C/VSTI85nsMWprFKr7n+15P5/T5uYOuMrJ93fMen5nY8R6MivnsMQOw1rHyfVAcE5DNeQgAO5bjVDDbwmAEkqoAOBSLcvwvz0rtTdYPtToXuxmYreXb0Xic15MZWOUnMndZghrjjn7d/A1ocxxZquwzgIgVpRbmsp1dcbVpeGc2PlQlnFyhoXa5tDkIAD67NVIAJQ1RKgAoG1qy/BPng3oWy0fanyvRwO4wDMd7oXu29Z9YRtHeTa3c1811tYcnVlhLkvMJXDiaF+5YeVMJzZWYQoCgPOS+riEHv9PAH3jyHXGQzgPooEiDiHE2rGwjtNnADyknvDa/zkIgD57NRIAZaaFCoCfqWV26r9zEABk4JbR1FcyhFY89fPdxJpUznO/foixVuZF6gxrS+6cA8H41MtI9f93Wz6wnHtTvX/b775155/oiXf1vq/wTIOzGXFdwL2rz2n6HTPOP5SpXL77tL8fE6zj5ASxz3LHHAQAjSt1BQmAkk6oAEhZbtKUIXMRAC5tO5SKvW9iY1Pl07bve8XN6Z1slXYRXPpy33Jms7VNd+ZLSmVsyYxOYtoqWPpA6LOBHhqXXHsArK1Gxgy9sTv+GQAuNxQgLGucVPf40Iwqz3dxsjLf64bEWK/5hrbyWa/fhlwF0Gd0TQKgzM1QARBbMNsKz9wEgEvngQBOM64YropwoOHis27bIaw5pnbHWuUBv7b/pGgkaF2SKxg4efF5AwnE3ASAmwBab0xi/48d5+f7bW1NsG1SnW+54WoIyzix16ZvLL0pbjkIgL7l6hIAZc6FCgDrdetzFQDE69S49RfCxyNfzKaXdc77nMU1S2uObGg4IetoAJx/MPeQiwBwXdq+RmZ8BEHMen72sHBM3rKHzy3r2zmyMFmb702dcJiDAOhbri4BUBa2UAHALyvLMGcB4Di5ysvSnWZqpeHitg5b2lynO1TrZYMpntamwj0HAWBtBIrzKEJ7Mt0cH2vzvfzKfkBkYbCOk+sNiZ1w6JKRgwDgCqGuIAFQ0gkVADQbaRnWQQA4XtYzcvmVc31pDay+Ftc9U9sFAVpzPMN4WIai4iTjmfeLGK/+1yoFgLUZaDeRLXRlB1f5XGhcblKdU1EUWZnvZT2S4kegXkpzEAB9q9UkAMpcCxUAT6vnduL/6yQAHCrLNbmuqzNl4pCL1zps3bJB3wrA8e3bOrPCc5uouQoB8LrCT8PrDbvZOXfjbwCE2u2nldKTjRt+5576TpEvm7X5XoqIJ0bGpe2yHARA32o13/f/6W2JnMv+UAFgDWQdBQDLjlvCZG0pjLPV+xxhzKXspqRj22LS3HGFsylLa44UCVfObKLmKgRAn9gKOR4zzu/KBoVDyLP6zuW7uVdkobU23zvkyqIcBMDjejhLAJSAQgXAz/eADT28rgLAcXJuby1thbuxvL612S4O67wd4iuPDcFHZzJRc6oCIGac3/UOWRuVSrEl4eJk/aFwwoAvfQ4CoG+yugRAWQBCBcAvGhecsQXAM8vKmS85x8+5lOoPBlpCFYKKzis+YPzFcc0azVYPYd10Lsd5aQSm7ysu5LhbQ71T0wMnsm9qAiB2nJ+TxmhHISR/+85l/XJM2dsXk91DDBW6OM9dAPxsD3AJgBJQqAD45R6woYfHEgBckvfPHS/4mcU4Yey4XGiau87n5B5fBe1e5r7tOsxW72Lqe8x6VrXLl9SGwDf+Q5w3FQHger3YfR8SnF0ByxUiboVOrPAbYrKwK4tuO3cB0OcPQwKgfEtCBcD/CHm7PM4dSwD8Skfj716Kv/eI7xin0OQrDb1wnM7FLXXLSuktALhmWKGbAJcN0veEZaPA/Du/MA51ZPejszs6BQEQM87vluZa2hVw7+jbI3PRxclyubCLU307dwHQN1dNAqAspKEC4FcjC3fbZWMJAB8LWZzJvUVbRFewf/cB1q/Pdbb6ENlDe+KnG4owVwlPaaJmzgIgZpyf5cTaroDLV7d9W2BhdAbDrMz3unh0becuAH6hJw8kAEpAoQLA0tc4ozCWAPiuZ0W+f0/BWcXhgwFwiKLrhQ49xuU/tGOu0E2AlTNtln/NmL/rss59omaOAiB2nJ8e4k41zsem9y5EAFib722KT9O+uQsAtmtdQQKgpBMqAH6zi2rEsTEEAGfSNr0ETfsOi0jDGJe42cC+BbcpbU37OFv9fmMkYOLPuGMRfzpksl42mPtEzZwEgBNNoeP8QzjoanqX3D4fAcDyRHsHFsNMvAefSRPhLg5927kLgL6hat96tG8oYeLVGhAqAGgD3TJIAITRHGKNsputbu1JLixl0zib3vho+a+vgg09Tj/rOYrPXARAzDi/m9Rp7aK7L2/7BADH+rn6qO8+PsdZbpzjm38LuOfcBcCv9VQnEgAloFAB8Fs9YEMPSwCEEtt0PivmDwa88D6VCf2qM399fH7HxXo+V9GWPK0v+nD1PYdfcvRZwEmIuQQrAfChSFbnRU6c5Dj/JZHPbMovupj2fd/6BMBrDeLFZczsjWXPoAsSAIv38TcclJatBEAJJlQA/E4L0NjdEgCx5DZdN8T6da6Hf2xatNbi6qG+MIe00haaMVYCgF+cTQ1r2z4avnluhBilqdz3Bj6rLQ7cTxHh5sr4pqFLANDRToqFQQ6DvLrFrLEEwKKM9fVUSwCUNUGoAPifoTVIz/kSAD2APA67hsjaU1mK6VKPaM/mlKHGmHMwK2wlAB7j2SjH2u23NpXrVstUVwVZCAB6/usSHF3H2ANBg2FtQQJgwfa32yCV+yUAShChAoCWrSyDBIAdTWu/4KyMnPOSVBehdqnM904HFt3VpyVU8G2VPyd33X9FybYSAIz+u3rY/CeAvQPT6SbHWpnKdcMwd2mIh4UA4EqEtnxu2++7YkcCYMH2dxvyr7pLAqCkESoAfq9K0eC3BIABxNotuLTIev16qvvSWhRn+69b0315REXf1gBwv7Mut/PI5CwFAF1Wv6oUldW0ciVEn/OWpmTT5eu5hpw5Me/QpgeV+8YWAKFDQRIACwHwvzrykYckAEpAoQKAdvMtgwSAJc3FvVxDxG7kamWb+vvsnkpyEYP1/jWUVTeaFT4WABvTMYKlAHDxJZuHlW5oHxJhfMt6JYavuB1bANzDAfPcSgAs6rrf72EmAVACChUAf9gDNvSwBEAosbDz3fp1S/Oirpt0l7CorOXZQ9l15wqEJ4xAdAgBEBtt67Lshrd8fYCMLQB84+V4SgAsBMALHJSWrQRACSZUALywBWjs7rkKAI4Hv6ywvc9K4+8A0ItidUJRLK/Y6/jV9H+MewO4vpo9QpyEqNBN4GcAXGDMn705/wWAeTtUyEEAcJyfy7osrTGysbxbIDQJAD9gvs7MaGEzJNCTq28PJnvJuoIEQEknVAC8uItqxLG5CQA2hm9uKaiXATgggpHlJXRGQ6c0vi+Sz3nVpVKWcZ3bvdyENWt/885C3hBmhVctAGgG+wzD8vpZAIdHFiwJAD9wOQiAvnZKAqDMy1AB8Md+ZcD7rLkJAK7R7Wo0OeGJS5ZWGTYHwHWyNPzTFdfQY7TWdt9VJmwiz7ZesubyifnJVTqWhpxWJQCsHWF904CNBIDfC5aDAHhpT1QlAEpAoQKAbmotw5wEAE3p+hj5eJElwIR7bV+IkeMB3GYoBNzX6DYJ8VqXS/cBQFsLrgG32p5TTrKz4Di2AOAEQXbf+jrv6mNmWR4lAPxKVA4CgH47uoIEQEknVAD0ge2C3nRsTgLgKZ6VOb+Ucwpcm3yKZ9z7Klx33OKLKydGQ8aF1hyth2WYDxQXd0+M+JgCwNpNr3WPlASAX2HKQQC8oieqEgAloFAB0Ae2h/vS4TkJgOd4NqK0b55jsK6A2QhxzPXhOSY2szgNNSzj1pJvFZneMQSAtQElzkl5YmR6uy6TAOiisziWgwD480V0Gn9JAJRYQgXAKxtxxu+ckwCgIx33Bdy15WzwXIN1F6zjwK/RPXNNdEbxcsMy9NDo2FlsrwLAWde0DxEShhQAznKl1RDUt8vhg6FW20gA+JWcHATAcT1RlQAoAYUKgL/oARt6WAIglNg459+19EzHNf8WDRDvwa9Rvpih65vHSXFeT6HNd0unNi4PPwGA9uh9wxACwNp3hbOSOLRdCgkAv1KTgwD4656oSgCUgEIFAE15WgYJAEua9vc6wtjcKhsimsl1HtbsYzyvO/6ssVtb8ucX9z8C4KTVvmAtAJ4KgLbtnSBJ3XLuCuewjBEkAPwo5yAAuBqrK0gAlHRCBUCfsuqC3nRMAqCJSl77hlq/Hvo1mheV8WLjvphpeCm1waxezy5zLhvk/IO2YCUA2KPxfsP4xw5ptKXTZ78EgA8lIAcBwNVNXUECoKQTKgD6lFUX9KZjEgBNVPLcx/Hp1wKwHJ/m1+jrPb9G86QyXqzoCIiNkNWYuRMDnJT6yJZkpAoA9jK8zjDOHEbiUuTYSY2cA8G5B12ipwXFj9k7Zl3bt7XdoOyt6Lq2eix0qEymgBcC+R868oCHJABKQKEC4DU9YEMPSwCEElv9+fsaf82x0nMTuMZycrN6ivExYKNs+TXtGp2miZqxAmCIVQ1N8fOlSJ8Mf1+WM6aXfgBODDRcpR4AP9o59ADwo6IrSACUdEIFAF8iyyABYElz3Hv9HACaN3YNiMX2QgCPGTcZk33a0wBcasy//oUdIwDo2vcLhvH6DIDDInPJeWVkuprKJ3uz/hIAh7n6ggRAH6FNx3MQAG/oiaoEQAkoVAD0da30cF86LAGwhGRSO9gVS7ObbRVsU6Xrs4+Oi/aeFInVRJZL3uig6zstDZwP66ZzKOyeDCBEALBn6GTDeLCSphMgn8a5Tp9d/b9cXM+5Ak3pq+/zWd0kAVCn3Px/DgLgjc1R+8leCYASRagA6Ota+Qlhzx8SAJ6gMj+NXazvLMZnLZcN0qzyXwEYwslN5jiDo3cXAKz0uCSu3rjF/k8zuu/xvB/rBZ4f+6zqdan5fiiAMwPjQnfZffMKJAD8imUOAuAtPVGVACgBhQoALh+yDBIAaTS3LL66DioncQ3pFtY3lvTeFlr5Viv/pt8yK+xLH6BVPWuzzk15MtQ+mu+9j39yN5xJEfovCSK0z5GVBMAG3K3/5CAAuiZiMuISAGX2hQqAvrGV1lLRckACoAVMz25OlqNRnZtqXzoXFQ0wx2BXGYZaNkgnNzIr7JezNOvsWxEP1ZiH3PdiAEf5JW3pLCvrlQ9euvPGHRIAG3m0/edb7miZMiQ8s1bXdZWvt/fcWAKgBBQqAP65B2zoYQmAUGKbzLn+Z8fLwG5gGlxZddi2FCk+HhK7Xub6sZTZ4KtmMubzKRK5zv/GjrJSZzv2/ymrPzjOT4NSNCxlEW8JAJvSmYMA4HBkV5AAKOmECoA3d1GNOCYBEA7Nx+vgNcXs5qFsoofGmJPD3mdUSbuKnpMOZVbYLyd2K+0HWM4PcPkQu3Xme2nbICawsf6kcZmSAIjJieVrchAA71qO1oY9EgAljlAB8NYNGNP/kQAIZ8juLZ+K98jwWw96BbulrZetrcIi3KCQBrz5gwCc5ll2fMpX7DkfD/RHUEWy+4BiRgKgSjr+dw4C4N97oi8BUAIKFQB9kyt6uC8dlgBYQtK74wzPSvy5vXca/wTXLW29bI0TDw8ZPzmTfOIQbp99xECKWLMa5++KpwSATXHOQQD8V09SJABKQKECoG9yRQ/3pcMSAEtIend81lMAcPw318BuaVpis1w26LqVh/YKlyvTkHiN0aC6xpbDNS/3WGbXFH/rcX4Xp6atBEBTDoTvy0EA0B5FV5AAKOmECoB3dFGNOCYBEA5tDgLApXqIZYPfLW7OBieXORAurTlu2aVuLcRc40pxdxKAu0cmnA2y9Ti/i1vTVgIgMqNql+UgAGgquytIAJR0QgUAX2jLIAEQTnNOAoCp57LBowF8w7Nno6nybtr3RQBPCMe7llc8FABN7jZxjNl3NoCHRJIccpy/Ky0SAJEZVrssBwHwoVqc6v9KAJREQgXAu+skE/+XAAgHODcB4AgMtWyQxmX6jLy4OKzj1tlt4MqRrgbS5xjvQTG3WQTIPrv9Ps+vnxMyxCQBEJFpDZfkIAA+2hCv6i4JgJJGqADom11ZhezzWwLAh9LGc+YqAFwqh1g2SDO1NORC97QKCwJHAPAtT/XGtfo/+dIHe4zZ5qHG+Wk4iithqvHs+i0BsCgXKb9yEACf6EmABEAJKFQA0ACNZZAACKfpW2HnPAnQJ9VDLBv8VmkcJ+YL1SfOUznnbuXYf1eD6HuMPSx0GhQT2Ohaj/NXTUfTVLZvOiQAYnJw+ZocBACXu3YFCYCSTqgAoBU2yyABEE5zXQQAyQy1bPBzAA4PRz/5K+5UpIATJG8JaBjbGtCUORZDjPO7XohtKrkkAdAsgNgbNlTIQQB8qidxEgAloFAB8N4esKGHJQBCifl32U69B6BKZohlg2zYKGj3qj5opr/dOL9vxdfW6HP/9QCOLcVZKK6hlh9+pGWehwTAegqAs3oKpu978PSe+0z+cKgA6FteEQpEAiCU2HoKAEeJ3bS+hpC6GrHqse+XZoW3dg+Z2Zbj4OcafPE7Ows7RfAZapz/S6U/gLYoSQCspwD4dFuBKPdLAJQgQgXAB3vAhh6WAAglNq4AuB2A3wZwajG7mzO8acr3TYXb1VW6Hrb8mq0KgasLD3r0UMbGag5hn3IdfjWNsb8/BuD+kVCGGOenF0wOZbCB7woSAOspADhM2hUkAEo6oQKAE34sgwRAOM2x5gBsBYB225saDVp3e3x41E2vGGrZYMoadtMERt5se0MvjFeWoigmKkOM8zvjQpzE6BMkAJrf37nPAWCPV1eQACjphAoAfglYBgmAcJpjCYC/bmn8nSCgxb17hEff/Ap+6XJuiouXxZYNDS3k3cU8tsPdkL01VgaVnPnevi/sptQMsZ7f5WnoKiQJgOb3Yu4C4IKmglnZJwFQwggVAH3rKyuMvX5KAHhh2nDSGAJgcwA3eDSqb9kQs9X+w2WDX/aIs2tMfLa+Xc2rTTnwaACs9HzS1HVO6Bd2Nd1DjfNX4/ue6gM9fksANJeJuQuAi3rKhgRACShUAHAs2DJIAITTHEMA8Ku6WvG2/eaM8JwCv4K5+uFGz/i3pau+v2+y2aoYcP29Ve8HJ04dFpmQIcb563nA/yUA2jPo3wLK/NwFwCXtmH58RAKgBBQqAGi0wzJIAITTHEMAHBRQmeTodGeoZYM0MXq/8Cwzv2KH0vLebQH51NSgcp8z38vJlaFhiHH+tnhKAHTnjgTA4qOFk5W7ggRASSdUAPQZWOiC3nRMAqCJSve+MQQAv+i6KuLqsZhx4u4U2h0dYtngD0uzwjHL4VJT5gwj+QzPVPOo6fetCeZ7h1rP3xTP6j71ALSXIAmARZ11eTumHx+RACgBhQqAPgMLPdyXDksALCHp3SEB0Itowwkcm+byPt+XvtrgdP12ZoU5X2KMYGkamQaQYiZwjjHO38VcAqC9pM1ZANBY1wcCPkquasf04yO+dYEMAdWg9xlY6OG+dFgCYAlJ7w4JgF5EjSdYmsGtNlKccPS4xifa7DwQwCm197D6/JDfKXE9tEjnmUbxqMaZTnvovrW6r+23BEB7mZqjAHArSm72LB+u3HBYqytIAJR0QnsA+LJaBgmAcJoSAOHMqlcMsWyQFU/sV3U1btXfnMfAyVoW4/ycrMnJkTG9FUON87s40THTqz0reAmAagnZ+HtuAoA9XuzKd416yPbajWiW/pMAKJGECgA6UbEMEgDhNCUAwpk1XcGlc1+IrGDaKqOUcXUXRxpgoq397xjELWW+wlDj/E0mhSUAlhs69liFhLkIgANKy6Nt75jPfjok6goSACWdUAFwXhfViGMSAOHQJADCmbVdMdSywZiZ9W58/TKDhp+VZOyKBReP2K+vrgqaVhYPbsgMCQAJgB0Lw1v/aNTj9Q8NZay6SwKgpBEqAPosLFUh+/yWAPChtPEcCYCNPCz+Y3f72wDQEE5XAxZ6jGPmh3hE8KGFaWVOsA29f9P5NIb0ZI9nNp0y1Hp+CqIuPwsSAMt5vy49AByWel7pZbKpPIfuY1nrs+ApAVC+/aECgF2mluH1npXeGxMeyvXNvoUo1hAKo/dbns9JFVESAAmFoefShwDgRFff8uJznjMrzC+cerg7gHcYCQ8OGXDoIMYuw1Dj/D/wXGooAbBc5tZBANBTpYUFS/ceXgHggfWXrOF/CYASSqgAuLgBZsqul3pWtn+a8BAJgHB4c7EDEJ5ygOXlNwZYNnhdeV/en5X7nwOgK2JXecVuOab+5mLC4K4RiR1qnJ9p4RDEfT3jJAGwXA7mLgAszXZzoiyHD+ggzCdIAJSUQgUATaJaBl+Lc1yCFBskAMLJrUIAsKv8xQDohOglxbrflDwPT/HyFdsUDfXfFHHiV2xs49x0HcfB2U3ZdCx0Hw1zMa9Cw5Dj/FyDze7+kCABsFwe5i4AQst62/l0UPeAkMIWIO5lB6BWUfWZWAzMhx+f/s7aM+oZ/a6Ym1aukQCowPD8OaYAoGo/uaUMvB8A3duuMuxdLvGrl8tV/n916fmPZTs0MG9p0ts6/uzNeHnhijjGMqQEwHJ+SAAsM6mW2RT/HOoBKGuN0B4AzlC2Dlz29CYA7MqsZjDHTult7o6JD5QACAc4pgBgI1/N9/rvD4dHf5ArjgLAIbB6/Mb8nwZRXhn5Tgw1zs/00wYCrbXFBgmA5XIlAbDMhGWNbsgpNGPmurB80rAWvXz6vLfqAaiB4iSLoQJNk/5mOZHpOQDuZfQgCYBwkGMJgIfXylfbS/nI8CQMcoVbNmhhi78trW37Yw0NDTnOT0FkYQVRAmC5QZIA2MjE2Y/YJfLNjnGgJQFQq6D7bCxH5s2gl0kAhOMdSwBwcmdbg1fdzwlzOYWYyqSanpDfXHnz2IjEDznOzy8ofoXROZFFkABYfg8kABZMYsb5XblMEe0SALUKmpOXphYkAMJzbCwBwJm7Po0hh4hyDJzEyol4PmkIPYerBri0lKZyQwPzb4hxfreksW+ddWh8JQCWy9AUBQCXtX7T8H3gOP9TQgtT5fzUYbtYexqVKOT9M3QOACdPTC1IAITn2FgCYAxDUOGpD7uCX9q/UgxffdWo4uOqg78r1s9vFxaNH5+9B4C3G9kVqAsWfvXTTsIQQQJg2gLAuanm+Hy93MT8nzrOv19hgKtvbpFPvO4zRGHP6Z6hAuAbOUXeMy4SAJ6gKqdJAFRgeP7kFxuHKkI9l1UrIro8vbfn86qnDTnO7+I3pPiXAFhuOKfSA2Dppjp1nJ8ril5jtHT3rdUXbK6/QwUAfaBPLUgAhOeYBEA4M3cFJ7P+R+CXEL/6WZGGhiHH+V3D77YSAMuNtGNT3dKkdFuglbrquV2/cxcAXB773oD0dKWVx1LG+TlM9lwA/EDte07TcU7qZW/kn5VeM7lSYC1CqABgN2DsLMxVAZUACCcvARDOrH7FowK6IdnlGRqYR0OM8zdVkNwnAeDXuMxdAHBZNieA3hLZ2NbLV8p6fr4zjyh8X9BLbf2+Pv+zx+ENAHYOffnmcn6oACBUqqXnF92dnF05hSABEJ5LEgDhzJqueIJnxRQiAIZcz99VaUoA+DUycxYA7KXiUvCucuJ7LHWcnxMOT0qIy6mefgOa3uvZ7HtmAsALiy8Q+lTPPUgAhOeQBEA4s6YrLAUADZ/wy+t7Ce+sb+XcdJ4EgF/DN0cBcAAANphN5SJ0X+o4P3sgXpHgR4MC5hcAcPhs7cMRBpmaagVs6EyQAAgnLAEQzqzpCisBwPHW8w3e1XplzTk99X1t/0sA+LGakwDgSpTjAdDZTlu5CNmfMs7P94s9EJdHxoWmqo8rHXE1vatruY8TTb4dCbSa8c4OOM365hZCBAD9sscGuQMOJzeHZYBdqbYQAKyEOU5afd9Sf7Mxf3Zx318OuK8EgF8ezEEAsM6kQ6drA8pHV5lMHeenvY3TI+NC2xX0N3O3rhd1nY89LxJsU4ZTnf1chjB9TbfGLMFyyZUAcCT8txIAmxqVrjkAf2n4ft5aelu8c5lFIXOAJADWQwCwsT3DqMyljvPT4NQbG/zENLU9Tfs+W7ilprlxhR4CXDvZBDB230eKCRo5GVH4kEf6ro+0uubQSgA4Ev7bVQkAGi5h+dy/cK6zuX90g8+06AGgKeDY97B63fsA7FtLgQTAgi2HvbrCCZ75MNUeADa2TCPH6KvlJuZ36jg/388/AnBjZFzYc0F/MuzJUPAkwOUUn48E3lRIflgWKNpNX3XwqYg5wSolSACE0xtbAHDI67U1b2A0XfqigYSAT7nju9PVA0Dz203vl+++ru5XCYAF23UVABTAx5Sru3zLVNd5qeP8nFjOCeZdz2g7RnsanLOwTXhVpCtIwHrshxnFCpYFLMamuWWu/EmHiVQabkld1igBEJ5bYwoAzk85q6NioRW+WBejbSlfpQBwDnu60iQBsGho1lEA0Mum1eTSLqHZilPfxgAAGahJREFU9n5U97N3KsWwEN2G37d6Q/2OJ8CJR5wxyTHDNrUVuv8cACmT7OJTs7iStszpWIZxOa/oAn43AHp8slgSIgGw4Oz7a0wBwC7FvjL7Kt+Ie563CgHASU9cH02/AH1BAmBRJtZJAJxc1n1974PPcc6vekGCZ8jUtuYSAE/sK+g6HkeAqoxjhz4FweecobyJxaXO9ioJgHCeYwoATgjqK6P8auY6Y6swtgCgsD00IPISAIsysU4CoO898DmeOs6f2tucOsEw4DXRqZYOH1i4fLonp0ZdAiA8x8YUAKwwfCq2voYgJJVjCwB6JQwJEgCLMtGX73OaBOjzHnSdkzrOT/sz53q+j/V4pAqPkPdD51YIOJeP34nMuHpG8v+Li3HZx1eeMeWfEgDhuTemAOCk1KYyWN9HG/5WQQLAj6S8AS6XzSGdAdXLvO//qeP8HJY60fM9bIoT5/CE9HD5lT6dFURgN8PlIi6TaU2QXtSmHCQAwnNPAmBTxW+1CkA9ABvL4JYBjY16AJZFiKufU7vb6a6aq6xiXWV/tTRMZDFXa2MJ0X/RBPjCfCrgBXOFqW3LCYdcwhGqfKMTYHyhBEA4UAkACQCWGvUALDe+ofXgvxnWxa6OTu1ud+6qYx0IyXxveJ066hXMYJqM/Jph4Zuq2pMACC96EgASABIAy40/G+BVC4DUcf4HJbqrZq/wnuFViq5YBQFrH9F8AT4O4H6rSEzkMyUAwsFJAEgAsNSoB2BZBPgKgNTudfe177ap4/y7Jg4Rc7XO4eFVia7IgQC9lqX4aHaF0G2dNcEdc0hcTxwkAHoANRyWAJAAYLGQAIgTACne8Vwd67ap4/w0pEaDb7Hme3MxGNdQTWlXKAGac7zAcFiAbktzsCbYxUECoItO8zEJAAkAlgwJgDABcACAU43q19RxfuYfhciXI+Mj873NdePk9zpF6OuJzynRri0NnRyWKZlf9XwBzk6Mv49BGzKkYIoNnODZlQ/VY5xpHRskACQAWHYkAJbft6YhgO3LidK3Bbyf1Xe1/jt1nH+/RENxMt8bW3NO6Do6A+LsfqtCG2LqdExMNDNcf8Ga/u/yFuYTXwkAH0rL58gOwDITGQJavLM5LwOkw56jAVznWcc01TvVfanj/DTfyzrd952qPpu/Zb53+V2c/Z4DAZxmVIBZiHKzJkhnR3yx6oW9/n+q4SMJgLhXxbeykiGg5jL89TjsXlepB2CZuesBoMMe+i2p1yMx/6eO8zsh8o3I+KQ+36sw6aS8CVhOXOFLQDVJi2s5BLpU7jJ2QStYqUECII6gBMAyN/UALBrW3HoA2L2eYjWvKhAsxvkpjGW+d/kd0p4IAtZLV1jYc7EmeFCxjIVja3zp3Et4deHz/Q9Kd8sRuDZcIgGwAYf3PxIAy6gkABbvaG4CwMoT60cB3H856733yHyvNyqdGEogtXC5BtZtc7ImuG3pn/puoVB6zpcA6AHUclgCYBmMBEC+AsDVabHb1HF+Z9ulq0ezK25TNei2/JZoz+AEOM4V273UVAjnXPgkAOKKowTAMjcJgPkJgNRxdme+98pKD2ZTHdu2T+Z7l98z7fEg4PxDx04waSqQn0js/vKI9uinSADEIZcAWOYmATAfAWAxzs/hy9MjG37WvzLfu/yOaU8ggdQlJnUhwIqfvrynYE3QB5UEgA+l5XMkAJaZSADMQwCkrudP9fDKOknme5ffL+1JIMBZsB9IUKN1ITAFa4I+uCQAfCgtnyMBsMxEAmDaAiB1nP/2pcGw70TWszLfu/xOaY8xAS4b/EpkAa2LAP7PBjRXa4I+6CQAfCgtnyMBsMxEAmCaAsCN86dY4WS9emlkvSrzvcvvkvYMSCBVqdaFQK7WBH0QSgD4UFo+RwJgmYkEwLQEgMU4f2rPqsz3Lr9H2jMSAY5V0TgGG/B6ox7zf27WBH0wSgD4UFo+RwJgmYkEwKIeGcMOwH0S6i2u53/AchZ673F+BHzfg3p9KvO93qh14tAEDgZwRsLL1FS4jxo60kb3lwCIA+lb8ckU8KJRrL4nMgXczKXKiL+7fH3QABq7z+vXdP3Pcf6nxBX5H1/lzPfG+hFwww1bJMRBl4qAOQG3bJAVU9cLFHIsF2uCXbAkALrotB+TAFhmox6ARd0xRg8Ac4BOdHzqJHpR/UMAHP6MDUcCON/zefU4WQw3xMZb14mANwE6zXg5gFsiC3q94Dtrglt7x2DcEz/tmc7fTYgWK8M6l7b/UyYiyR3wJs78ymoL1wTkxa+03aRlvwTAopyPJQD4Rf6GjmFMek3lsuWdW/LMZ/e9AJwUUG7q7/ZZxQqsQ30epHNEIBcC+wA4OaHQ11+CXK0JspeiHtem/5+akDESAAnwKpfSSVVT3tT3SQD4cXpPha3PT4rTOuu2/8cSAC7eDwPwvorPEA4N/FviOL8z3xv7MZRrneeYaSsCvQQeDeDCgBe/rUJw+3OzJvg8j7TRfvcOvaTaT5AAaGcTckQCwI/WurgDbqJBw2d01pPS40jzvc8C8DWPusHVa9WtzPc25Yz2TZbA7UoDFzdGvhDVl4O/3XhYDtYEOZGIM3Lrcaz+/4rEnJMASARYXi4B4MdxnQWAH6H2s/iufqqnPqjWDfXfMt/bzlZHJk6ADTYn3XBcrV7wY/7PxZrgXgCa5gJwottfA9gsMd8kABIBlpdLAPhxlADw41Q9a/fEJdGcTCzzvVWi+j1bAg8C8EkjEUDhwJeHY3irDOz2oxfFFxUzhf8CwG8D2NMoQhIANiAlAPw4SgD4ceJZWwE4FoDM9/oz05kiAOfm8gojIeCsCd5thmwlAGwyVQLAj6MEgB+nFLPoMt/rx1hnzZwAx9C5bJAT5WKGAerXTNGaYF8WSwD0EfI7LgHgx0kCoJvTAUVv3ykJ9ZXM93bz1dE1JLBHOYZWb9Bj/+fEvKlYE+zLbgmAPkJ+xyUA/DhJADRzcuZ7Y+cwyXxvM1ftFYGfEKDp1/MS1HVdMFBt3/snd5/mDwkAm3yTAPDjKAGwkZNbxfTtyHpJ5ns38tR/ItBJINVedl0EuPG2lLW9nREe+KAEgA1gCQA/jhIAC060Y3JBZMPvlivvsridfomACPgSSO1yqwuBq0sDHZyAOKUgAWCTWxIAfhwlAIC9Zb7Xr7DoLBEYmgC78D8YqcLrIoD/cwJPiivPodNbv78EQJ1I3P8SAH7c1lkApPoykflevzKms0QgmEDKspu6EHDdczsFx2L8CyQAbJhLAPhxXEcBkOrNVOZ7/cqWzhKBJALO8AYn1tQb9Zj/ry/NFKda60tKVM/FBwWkNcVPuLwBbipTcgbk927NxRnQwQDODHjH6vWMzPf2VGA6LALWBFJNb9Zf4s8BeLh1JI3ux/HIenyb/udXSEqQAJAAYPkZqgeAjnaaym3TPvZ6dQW66G26rr7vbR03Sa1DZL63A64OicAYBA5JVO/1CoNqPjdrguydoN+Delzr/3NuQ0qQAJAAYPkZQgBw+O5yjzLsyvSQAiC1F/GbE+g1TKkHdK0ITIqAG7+7NqCCcRVN0/Z7ReppnTClO90aID0KNsW1uu9piQ+VAJAAYBGyFAAPBHCaR9mtlmP+5rBXV4jtAaAQuSwiPoyTW068TVfEdEwERGA1BLYFcFzhkOfWyBe8Xgl9CcATV5OUpafSGAl7J+pxdP//1dIV4TskACQAWGosBAAn17KR5mRbV0Z9t7S0xyXAXSFUABwI4NSIuLg4y3xvV27omAhkROA+AD6U8LK7l95t2fDeK4P0safjl0oh8EUAFwJ4R1Gx0XqiRZAAkABgOUoRADTidUzxF2s1j+/cWz0Ks68AeD8AlusYIcK48D3j6hEFERCBiRGgFa8vGAkB1/03VWuCPlknASABwHISKwDoDjvVjPdFADhZsC/4CgAn4kO3Mt/blwM6LgITIODseN9oJASmak3QJ6skACQAWE5CBcA9APy7wfvFe+zoU1DL4YXQRt3nfGcfROZ7PTNCp4nAFAjsmjAm2VRxnAWA64fnFCQAJABYnn0FwAcAvNLAlffFADg5LyQM0QPAd/rQkEjoXBEQgWkR4Ozi0w2+VigK3NfCFKwJ+uSSBIAEAMuJrwBoEsYh+zhP4NjI1TaWAkDme31qB50jAjMhQGdAzwBwpZEQmII1QZ+skwCQAGA5GVoAOOG8s0+hbDnHQgDIfG8LXO0WgXUgcMcikVzvf7OREMjZmqBPfkoASACwnAwpAD5azBe4v09hbDnHak6PzPe2ANZuEVg3Alzid5KRCGAXaI7WBH3yVAJAAoDlZAgBcEnZ6+ZTDtvO4TyBLye+pzLf20ZX+0VgzQkcCeD8xArGjYE6a4JbToipBIAEAIurpQBIGed3r85+xYTb9yW+lzLf62hqKwIi0EqAhkyOBnBdYoXjhACtCXK+wRSCBIAEAMuphQCwGOenPYDjAfww4V109jtkvncKNZDiKAKZEKApUlY+NEvqGvOULU2J0kJhzkECQALg5wHQ1kVKWacVzv0TCroT4d9IjIfM9yZkgi4VAREA6MwkxYZ4tSJ1XyN3zhTsaz0rXM7ATg2+X3VWZo4ZX5p0reZH229agWsL13jeg/f+lbabtOynmee2ONX3f73lHrG79y3WwHNdf/05If9bjPMzv881iEcuPjxi80PXiYAIZEQgxYtYvRJlI/IsAFyOmFN4vmfF+wKDSEsALENchQCwcKBlMc6/B4ATPctf/X1y/8t873KZ0h4REAEjAncoDZewonGVTsr2bACHGMXN4jZ39/CkyF6MvQweJgGwDHFMAUDxSRHKnoTYMmwxzm+xFNfFQ+Z7l8uU9oiACBgTuGv5tfKjhMrTVbqu8srFmiAts7m4NW1fYsRSAmAZ5FgCgK5xU61hpq7ntzLGJfO9y+VIe0RABEYg8AgAn+9pMJsa0aZ9OVkT5Jfh5bV0XQHg2YZMJQCWYQ4tACwmtlqM81uY45b53uXyoz0iIAIjE/jpsiv12lqD2dTI++yj++KfGTkNbY/bu3SOwq11kABYJjqUAHCz6lOWtlqM8+9m4JBL5nuXy432iIAIrJgA1ywf5zGG7iMCeA6tCXJMfq5BAmA5Z4cQAOylSplV74aoUuz23x7AMQC+kyiSZb53ucxojwiIQEYEuJwq1WqZEwlTtCbomxUSAMukLAUAv7Y5qz5lnkrqOD9TyNUzlyY2/DLfu1xWtEcERCBjAhYVnxMCtH8+FWuCvlkiAbBMykIAOGc5KV/bFuP8NN+baldA5nuXy4j2iIAITISAVdenEwIfmYA1Qd+skQBYJpUqAB4NgHNIXHkJ3VqM87uJhr752xRHZzBL5nuXy4j2iIAITIyAxeQnV1G6yjFXa4K+WePbQMgSYHODXrUESG+WHB93ZSR0azHObzHRkPGW+V7fN0jniYAITIrAgwF8KqGirlbsuVoT9M0QCYBlUqE9ADRM9fLCONXNCWXKYpyfXjTPS4gDyzWHHWS+d7lMaI8IiMCMCDgLbF9LrDCdGMjNmqBvVkkALJMKEQBcDndVQhm6uJygtxwL/z3seTgpIQ4swzLf689bZ4qACMyEgDOBektiBcpK1KILd2ysEgDLxEMEgBOAoVuLcX6LsuvKrMz3LpcD7REBEVgTAjSyk/oV5RoBZ02Q47G5BwmA5RwaUgC4BjdlPb9V75XM9y7nvfaIgAisMQHO4L7AoDeAYuCiYq7BYzJn6dvzQUM2VmFO7oCd6PPZWozzW8xfkfleq5Ks+4iACMyOgFvDfYOREMjZmuCVnmmkYSWrsG4CwGI9/+4GBoVkvteqBOs+IiACsyewA4DjAdzm2Uh2fQXmak3wzR5powMidjtbhXURABbj/FuVrq9TDAqxXMp8r1Xp1X1EQATWigDdtp7m0VB2CQB3LDdrgvyyv6knbb9qnNs5CwAKnT/r4eHysm3LeRWvA7BjIjdasfxKYlxkvjcxE3S5CIiACJAAK+S6e962RqBvP60J3jcTrFw/3uRF8VYAfzRAHHMVAA80EHoW4/wHADglseGX+d4BCq5uKQIisN4ELIy+OHGQkzXBOxXOYv4HgFcD+PvSa9weA2V1bgLAmc1NGeqxGOe3iIcrUzLfO1Dh1W1FQAREgI0jvby5xjxlS2uCRwP46TXBmosAcGZz+bUcm38W4/ycdMr8vy4hHoy/zPeuyQukZIqACORB4JGJft6rDQ+tCR6aR7IGjUUOAoC+Dc5PaHAt1vMTMpedpsSD5Ufmewctrrq5CIiACLQT4Jf7swB8I6FBcULAqmFpj+3qj6xSAFj03FiM81sYnpL53tWXZcVABERABH5MYLty2aCvdT3X6Ddt2bV8DIApWBMMzf5VCACLuRsW4/yca0HHQb4GmJrKhhOJMt8bWvJ0vgiIgAgMTGA/AO836A1g5U9rgo8dOL5j335sAfAOALR+19SY+uyjGPs9AByrjw2ul4jug32e2XaOzPfG5oCuEwEREIERCVis43YNwZwMuYwtABzD0K370k6x28/idnAh4s5IbPhlvnfEF1ePEgEREAELArcvu/JTLbmx8crVmmAopykIAItxfpnvDS0ZOl8EREAEZkhgNwNb7u4Llvb7OelwqiFnAWAxzu/M93KSnsuzmO2cen2mWlYVbxEQAREwI0Bvbqndwa4x4VdqLtYEQwDlKAAs1vOTAYd9Lkts+GW+N6Q06VwREAERmBABqwlhFALO8tudJ5T+nASA1Tg/zQifmtjwy3zvhAqxoioCIiACKQQsloS53oCvTciaYC4CwGKc38JjpBNxMt+b8jbpWhEQARGYIAEahTk58evRCYFPT8Ca4KoFwMVlV31KUeGSQNppuCEx32S+NyUXdK0IiIAIzIQAzcJemNigUAj8qJxwmLp8bSisFgLg3AhOVuP8zKcLIp7vRBq3Mt87VOnSfUVABERgogSsvizZyLgGj0sRcwoWAuD4gAaYlhlfB2DHRAj7AODM/GpDHvpb5nsTM0GXi4AIiMDcCViMLbvG6YuZWRO0EAA7efaWfAjA/omFZVsAx8l8byJFXS4CIiACIhBE4EGFx7hPJn51OiGQy7pyCwFAiPS9cAIAzuR3aXRbi3F+q9UaMt8bVOR1sgiIgAiIgCPwU8XX7jMAXNHQ0LkGz3f7/eKmdEazpbv5CrZWAsBF/Z6F06RXAngvgLcU7pmfauBE6REAPpfIW+Z7XQ5pKwIiIAIikETAwqOdEwpXrdCaoLUASIJau/iuBhYbKbI4ZMBlngoiIAIiIAIiYEbAwqe9EwJcC586Rh6asBwFAMXVsQBkvjc0N3W+CIiACIjA6AQeBeC8xG5qCoGxDdHkJgBovvfyRI4y3zt68dcDRUAERGC9CWxeWgC8LrEBoxBwpmg5+W3IkIsAOBDAaYncHLPNhgSme4uACIiACIhAG4Hti1nxXBt/W2KDRiHwGQAPaXuQwf5VCwCLJZZj95oYYNctREAEREAE5kzg3kXj/UEDEeCsCe4yAKxVCQArI0sy3ztAodAtRUAEREAEbAhwXPsrBkJgCGuCqxAAFmaWZb7XpmzqLiIgAiIgAgMT2MpoZjuHBWhN8HFG8R1TAOxb2gdgGmL/ZL7XKON1GxEQAREQgXEJ7G6wtt01nrQmuFdi9McQAM58760JDT8tDJ4IYIhhkESEulwEREAEREAE/AkcUnzFn5nQIDoRkGroZkgB4Mz3XpuYTpnv9S9XOlMEREAERGACBKwaSIqBWGuCQwmAIwB8PrHhl/neCRRiRVEEREAERCCegEUXuesR+FigNUFrAWBhGTG1VyM+J3SlCIiACIiACKyAAH3c04mOa8xjtz8s7RBs45EGKwFg5RshFy+JHuh0igiIgAiIgAjYEuAyuS8YCAFnGa/LmmCqAHDeEWW+17YM6G4iIAIiIAJrSsAZyrnRQAh0WRNMEQAPAvDJxPg5kSLzvWta0JVsERABERCBZgK7AjgBAJfBxQ4J8Lo2a4IxAsAiTjLf25zf2isCIiACIiACGwgcBOD0RBFAIeAM6dy+vHuIALDqlZD53g1Zq39EQAREQAREoJsAx/J/rfA4eI2BELiw8L53JABfAcAv9i8nPpcWDPk8BREQAREQAREQgQgCWwN4FYAUy3puOOH8xEbd3adrewOA3wfAHgQFERABERABERCBRAL3AnDSCA14V+PedUzmexMzWJeLgAiIgAiIQBcBduWP8SXf1djXj8l8b1eO6ZgIiIAIiIAIGBHYvJgbcDSA61bcIyDzvUYZqtuIgAiIgAiIQAiB7UsrgLeNLARkvjckl3SuCIiACIiACAxE4IEATh1JBMh870CZqNuKgAiIgAiIQCyBJwG4bCAh8FkAh8dGTNeJgAiIgAiIgAgMS4COeo4tjQDVJ+vF/C/zvcPml+4uAiIgAiIgAqYE9gTwroTeABoD+lsAPl4GTSOum4mACIiACIiACKQTOALAuQFCgH4EOM6/b/qjdQcREAEREAEREIFVEqD3vd8GwO78rmGAMwA8bJUR1bNFQAREQAREQATsCbhlg9+rCYFLAPwigJ+yf6TuKAIiIAIiIAIikAuB7QA8E8D/Kmf2q+HPJWcUDxEQAREQAREQAREQAREQAREQAREQAREQAREQAREQAREQAREQAREQAREQAREQAREQAREQAREQAREQAREQAREQAREQAREQAREQAREQAREQAREQAREQAREQAREQAREQAREQAREQAREQAREQAREQAREQAREQAREQAREQAREQAREQAREQAREQgXUh8P8BQc2dInkaHDIAAAAASUVORK5CYII=;" vertex="1" parent="1">
          <mxGeometry x="605" y="89" width="22" height="22" as="geometry" />
        </mxCell>
        <mxCell id="Rva5wzU9HTMexQS1WgZx-35" value="" style="shape=image;verticalLabelPosition=bottom;labelBackgroundColor=default;verticalAlign=top;aspect=fixed;imageAspect=0;image=data:image/png,iVBORw0KGgoAAAANSUhEUgAAAgAAAAIACAYAAAD0eNT6AAAAAXNSR0IArs4c6QAAIABJREFUeAHtnQfYNEWxth+SCioIgiJmRUQFUQygx4AgijlhRAyYM3hMHCNGjJhzRkRUxCMq5uxBJQgqZgQMCKIECQKi/781vsu77LdhQlVPz8zd1/V9u+/MdE333dXdtTPdVRIJAhCAAAQgAAEIQAACEIAABCAAAQhAAAIQgAAEIAABCEAAAhCAAAQgAAEIQAACEIAABCAAAQhAAAIQgAAEIAABCEAAAhCAAAQgAAEIQAACEIAABCAAAQhAAAIQgAAEIAABCEAAAhCAAAQgAAEIQAACEIAABCAAAQhAAAIQgAAEIAABCEAAAhCAAAQgAAEIQAACEIAABCAAAQhAAAIQgAAEIAABCEAAAhCAAAQgAAEIQAACEIAABCAAAQhAAAIQgAAEIAABCEAAAhCAAAQgAAEIQAACEIAABCAAAQhAAAIQgAAEIAABCEAAAhCAAAQgAAEIQAACEIAABCAAAQhAAAIQgAAEIAABCEAAAhCAAAQgAAEIQAACEIAABCAAAQhAAAIQgAAEIAABCEAAAhCAAAQgAAEIQAACEIAABCAAAQhAAAIQgAAEIAABCEAAAhCAAAQgAAEIQAACEIAABCAAAQhAAAIQgAAEIAABCEAAAhCAAAQgAAEIQAACEIAABCAAAQhAAAIQgAAEIAABCEAAAhCAAAQgAAEIQAACEIAABCAAAQhAAAIQgAAEIAABCEAAAhCAAAQgAAEIQAACEIAABCAAAQhAAAIQgAAEIAABCEAAAhCAAAQgAAEIQAACEIAABCAAAQhAAAIQgAAEIAABCEAAAhCAAAQgAAEIQAACEIAABCAAAQhAAAIQgAAEIFCewBaSdpb0FElvlvQJSZ+X9G1Jx0r6jaTTJJ0v6f/xDwboADrQMR3412h8O13S8ZK+LOnDkvaXtLekh0naSdL1yw+ZXAmB7hFYR9IOkp4v6UBJR0n6e8c6MgYIRhg6gA5E6cCJkt4qabeRgXCF7g3xlBgCqwTWkrSdpH0kHT76PIfJnl9u6AA6gA6U0gF74mnj5pMlXWd1WOUbBPIlsK6ke0s6WNJf6eilOnrUrwnk8ksVHeiPDvxU0pMkXS7f4Z+SDZXArSS9RdJfmPSZ9NEBdAAdCNOBUyQ9UdJ6Q51sqHceBDaX9AJJJ9DZwzo7v+D68wuOtqQtPXXgZElPwBDIYzIcUimuK+kdo8n/QiZ+Jn50AB1AB1rVgZMkPR5DYEhTcDt1vdFoMcoHJV1Mh2+1w3v+ikAWv0rRgX7owC8kbdvO1MBd+0xgm5VFfbaXlcECBugAOoAO5KkDF0h6XJ8nI+qWjsBGkt4m6RImfgwfdAAdQAc6owMfkbRBuqmCO/WNwCNXvO9h6edp6dMutAs6gA4s0gFbnH2Tvk1M1CeWwM1WXPAuUizOMfCgA+gAOpC/Dpwnac/YKQPpfSBge0rNN/U/eczXmcd8DMD5D8C0EW2Ugw7Y2E6CwEwC15P0QyZ+Jn50AB1AB3qrAxaDhQSByxC4n6Sz6PS97fQ5/PqgDPwKRgfy0AFzHESCQOFG8k1M/Ez86AA6gA4MRgdsK/fuzH/DJmCRpX5Apx9Mp+fXVx6/vmgH2iEHHbhI0l2HPQUOt/bmKepPTP5M/ugAOoAODFYHzpV02+FOg8Os+Z0knU2nH2ynz+HXB2XgVzA6kIcOWLh2WwBOGgCBB0j6B5M/kz86gA6gA+jAig58aQBz3+Cr+CRJufvxN4cVx0r6+EgxXyrpYZJ2krS9JAtCZKGHrzj4lgQABCDQRQJrjyKobibJ4qrsIukRK6HUv5LBDzPz+krqKYF9M7X2/yjpQEmPlXQDSWv1lD/VggAEILCIwBUk7Try3f86Sb9vYbw+Q9KmiwrIuW4SsF/+Ob1v+56kp41+5W/VTZyUGgIQgEAoAfPI+mhJ5sc/5dhtP8ZIPSJg7/xzeOz/G0kvWfmV3yO8VAUCEIBAGAF7InpfScclNATuHlYbBCclYKv9217wd4QkKwcJAhCAAATqEbjcSoyWFD/mTmKdVb1GyimX7fNva6vfvyV9RtKtcgJCWSAAAQh0nMCdR+ulTknwNMDWIZA6SsA8/LXl5OfzkiyUMAkCEIAABPwJbCTpa8FGwN8lXcm/6EiMJmCLR9pw72tW6f2jK4d8CEAAAhDQ+pK+HGwE2OJxUscIpA7sc/HKuyn25ndMUSguBCDQaQKXl/SFQCPgx52mM8DCW0jflFtGbK+qOeghQQACEIBAegK2ODDyScAO6avEHesQMF/OZyU0AI5c8cpXp6zkgQAEIAABHwLmvOfPQWP/h3yKiJRIAvbe/4dBCjDriYI5i7DHTyQIQAACEGifgHkQtN1Xs8brJscukLRx+9WjBIsI7B/Q8LOUxvagPn9RQTgHAQhAAAKtEHhj0DzwrFZqw01LEbAtd/8MavhJI8DiRptHKhIEIAABCORHwNYD/DZgLvhZflWlRGMC3w5o8MmJ376bZyhzLESCAAQgAIF8CewVNB8QJCjDNrfwjdOTtfff5lPAwleSIAABCEAgbwLrrvxg854HiA+QWbubN6jTgg0A++XP5J9Zw1McCEAAAgsIPDFgXnjhgvtxqgUCbwto5Emr0d7589i/hYbllhCAAAQaELC1AN4/Dg9rUB6yOhPYRtIlgQaArfZnwZ9zoyEOAhCAQCICH3SeH/6QqNzcpgSBg50bd/KXv31nq1+JRuASCEAAApkS2D1gjrh6pnUdVLFuJCkyJrQ5+SFBAAIQgEB3CdgaMe/t4ffqLo7+lNz70c7kr39z74uHv/7oCjWBAASGS8B7i/hLh4syj5pfV5JF35uctL2+W2CfzfOoplspNpR065FzDNsu+QpJh0j6qiQzdMy5hYUw/puks/nXewYWJ8Pa/MOjNn+GpB3dtKyeoLUk7SzpzaOyfGni3xGjOOxvGMV7v0M9sW651pZ0J0n7SPqYpF/QRzrXRy5ynitsjjhA0mMk3UKSLTYkJSTwDucGHRsPZlT0IaqfDVo2cNoA+usgVmNmfMYYoim5WijVLRL23/Gt7ibJQq0uq+v/Sbr9OFPCzy0lfa9E+ZaVn/PL27jLjGzeOF7SRyQ9W9JOkswPASmAgP06vzCoU1osga6mK0i6t6T3Szo9iE+XOyllXzwIn7nyhCiV/r+kYtAW2+2Tyhe7PZV4uqTz6UdLjTP61ex+ZWPwmyRtl6pDDeU+LwjqlPYY/Iodg2jRqfYc+Sk4VNJ5QVzo4LM7eF+5PCpBH3hZA13dO0H5ntugfH3VC+pVfxywp1ymt1dLoLu9v8UJQZ3z/h0id6VRWW0QNSdFdEwYeOqArRG4ZmBfsBXUTcK12pOAyHUBW4+2//6DfsW4EqADthvhc5IsZDGpBoFbBTSKDZ6fr1GWNrLYe6Wn8oifwSmoH4wNCVuMF5FMfz3WpPwoonCjBbLrrCyMHXPgE+M6SgfMELA1JqQKBN4SMPDZrxELJZx7MocWHoNnlEIjt1+D5R0DOsTDHfuv7RzwTub1Ez2GQSodsN0Jtu7MnuiSlhCwXw9/Ceign1ly37ZP2xYki0SYSim5D6xNB/47QPE9PXfaTiDvZFtk0X8YpNaBUyXZ2htbfEqaQ8BWuEc0jL1WyDHZghF7TBRRZ2TCdZkO2GTtnU521OfjvAsnyXwPLOPCeRhF6YD90OvC0+iArrdcpOevh3EDWofPMdnWEc/BclxfPhm8yuqAvW7yTp4OWexpoHeKeMJYljfX0TdNB/4uCVfDUz3bHo38NcA6t8fruaUHsqWPX2EBul51grFtsZ7J+rCnT3bzXOmZrHzmCbMqJ66HmbcOWIwbcyhEWiFgv4i9If8mM7o2AFV1juLNBHn+etZVphFrY/7o2I/NnbF3+oZj+bra7pQ7nzHgA5LW81byLsozP9zeimmTbS5pA0mfDKijNzPk+ethrkxfGNA5DnfUcXO76p1e71i+XNuVcnWrD1sgo029Fb1r8jwHjnEHuEEmEK4t6RgGHncDb9zOfNYb8O4e0D+e6KjnEY67HupYPvSunt7BbU1uJ0q6UUB/7IRIc85xjnPHtAAfOSRb8Xmac93oQGt2IJhUY3Js0KNH2+/soe/2+i4i2Io9iTPZ6AsMctMBMwI2y2HSSl2GHQI65NNSV2LG/a468uNvjZqbolGeYbeJrdTfdoa+eh16vIPOP8irMDPkmJthW4RFP4BBbjpgUTEt6Nug0vMDOuNWLRO0hR3fDKhXbgpLebo3iO6boG/Y4qa6uvHGBOV7c4Py1a0X+errxJDYfWpoDoM+5twZbSVy2+ldznUaUgegrjEDpW3Re/mKP/zo/mEG8Adr9IEDRmVcO7pwK7+y3towaBF6GqOncJVel6APZHOLo2oMFIuU5MCWa2bBfBaVj3PwSa0Dx4+8Tm7fQr+wRYEWN31ZfX8vyRbopU53lvTbEuVbVn7OL29jGFVj9KTUnaGt+5lnJE/leGxbFZF0F2dnKJ5ckOWrZznztD71LUn2OP1hki7XYp+whYFmFFsEQnP2ZcG57J955bMonbZmoM33nldc8dNugchs8fB5zuNRznpC2fIdE+yJ3S4t9ttkt/ZWwra2/91Qknkv865PFXm2uMkWktij1OeNFiHuuRKbepuVFaZXkcS/fjPYKNFj9LoDhL0eiFjhX7c80/lsVxJ9ZFgMtpB0y1FQtt0kPXpl7PyEpDNaHs9/J2n9aQXt299VJrhl15r1bh73Uif7FXFCS8piRsdBo+1Ne0iynQckCEAAAhBoTsDmEjMMnjt6umsOe5bNPxHnbd1Or5MnNNvf3EZ6WQvK8VNJuyda1NUGU+4JAQhAICcCFlnWPLqm3EZ6Yd+dBHkaAB9vQVuuPoqtfm5CA8B8pD+kpScdLeDllhCAAASyIrClpPcn3EVi62d6mzwNgJe2QOmdiSZ/W0D18Mzf77aAn1tCAAIQaIXAzpJsB4vnHDZPVqRzrFbgjW86r8J1jtuK55TJHA55hkCdV+cjJVlMARIEIAABCORDwBbd2tbzeWO313EzNGytWe+SFyCTs1NiOp9O0PC2op+QkYkblttBAAIQqEDAdg9cEjwf7FehPJ251NMASOnsZMfgxr5AUm8f+3RGOykoBCAAgXIEbG1W5BPhUzPfQluO0tRVngZAypCK3wk0AEyJ7j3FiT8hAAEIQCBvAg+UdHHg3HC/vKtfvXSeBsDm1W9fK8d9AhvYvKQ9slapyAQBCEAAAm0TeEDgDgHzntmr5GkApFokYW5WPcs9KesZvWpdKgMBCEBgeAQsoM/kuO713dYZXKtPOL3AmJwUybztRS32eG2KCnAPCEAAAhAIJWALt38UZAS8OLTkiYV3zQB4TFCj/qLloC2Jm53bQQACEOg1AYtLc07AfHFyn/zBdM0AOCygQe29/5163RWoHAQgAIHhEYgKD3+3vqDskgFgkZnODzAAzK0kCQIQgAAE+kXAQnFHeAs0/zC9SF0yAGwLhmd5TdbpkjbuRUtSCQhAAAIQmCYQ8RTge9M36erfnhNqNIMPBRgA+0YXGvkQgAAEINAagctL+oPz3GFPotdprUaON+6KAWCwz3BuRHP4k8p3gWOTIQoCEIAABCoQeK7z3GHz5s0r3D/bS7tiANw5oAEPzbZVKBgEIAABCHgRsBDCnnOdyXqcV+HalOMJJbIerwpowLtHFhjZEIAABCCQDQHb6u053707m5o1KIgnkAbFWJr1M86Nd1Kf9nIupccFEIAABIZN4PXOc8gxfcDZFQPg586N954+NJ5THdaSZB4WbT0E/2CADqADfdSB3Z3nEAs6dO2pMXPTrv2w7IIBYAsAL3JuvCc6TZ5dELOJpLtKepSkF0h6q6RPSzpS0inB0bM89QtZvo8w4QlPdMBfB2xxue06+OFooaA9uX77aIz9H0nmxXZXSZvlNGl4KkBUvSIWcNwqqrCZyL2epGeNPBx+IzhGtqf+IMt/MIIpTNGBvHTgX5K+K+k5km7U9nzhqRxRddnF+de/PU0wD1F9S9tL2k/Scc68PHUEWXkNRrQH7YEOtKsD9nr7NZJ2HI3f9jo2afJs/KiC3995Qjs6qqAtyDVDZp+VR/mebYmsdgcF+MMfHRieDpwm6SWSrphqLvFUsqgy7+lsABwUVdCEcs1SfIQk283g2YbIgic6gA6gA+3qwJ8lPUnSutFzimdDR5XV25fzO6MKmkjuzpJsC4pn2yELnugAOoAO5KUD5rvAnoCHJc8Gjyrk85wnu9dGFTRYrrmePMKZhWf7IyuvwYP2oD3QgX7ogC0avF3E/OKpIBHlM5kvdZ70XhZV0CC5a48WLb5akq0e9WwvZMETHUAH0IHu6IB5H1zPc57xbHzPck3Ksgnbs5xdMgCuLOlw5/p7skSWr27CE57oADqwSAe+PfItYA6HXNKiG1U951KgGUKGagDcUNIJTP6uxl9VneZ6BmN0AB3ITQds8fe2M+bKyoc8K1b55iUzDNEAsIV+f2PyZ/JHB9ABdAAdmKED50q6X8k5dO5lGABz0bR24ml476PDz+jwnn0VWfyqRQe6rwP/XnEzXHuy8lSC2oVYknFITwC8I1Z5ti+yuj9g0Ia0ITrQPx1475I5dO5pT2WYe5OGJ4ZiADyeX3388kcH0AF0AB2ooQMWW6BywgCojCwkwx2Jykenr9HpPfsvsvr3y5A2HU6b2jbxe1SdnTwVpOq9y17f9ycA15X0FwZ/DAB0AB1AB9CBBjpwtqSty06sdh0GQBVa/tda0Aei9/nqoadOI4u2QQfQgS7pwK8lbVx2qvKsWNl7Vr2ur08ALKDPp52NMM/2RBYDHzqADqAD3dOBr0hap8xE69m4Ze5X55q+GgAvZvJ3fQLlqcvI6t6gR5vRZujAqg68scxk6wmszP3qXNNHA+B6ki7MxACwvaR/lWSxqPkHA3QAHUAH6unAGRnFbLFFgdssm3AxAJYRijl/UEuT/28kvUHS7ivRpWwB4uViqohUCEAAAoMjsK6ka40it+4g6QGj4D2vGo23P2tpvP/CMvoYAMsI+Z/fXpL96vZkv0jWLyXtK+mm/lVBIgQgAAEIlCCwpSTbq/+ThGO/zQs7LSrboomj6rlF92lyrm+vAL6WSAHsMd6TJZlFSoIABCAAgfYJWHj3R0v6Q6J54ChJtuB8Zqo6yS+6fuYNHA72yQDYLUGj29qC/UaP+q/kwB4REIAABCDgT2D90TqwF4yeCpyXYE546LziL5rQq56bd4+mx/tiAJjld3xwY/9Z0o5NgZMfAhCAAASSENhO0snB88KJ89Z6VZ3kF10fRasvBoA99lnEr+m5o1cWn0S1A3IhAAEIQMCfwGaSvhs8PzxrVrGbTjqT+WfJ9zjWFwPgyMAG/pwke6REggAEIACB7hGw3VgfD5wjfjELyeQE3vT7LPkex/pgAGweuPL/x5I28ACNDAhAAAIQaI2AGQGRTwK2mq5Z00l/Mv+0bK+/+2AAPCHIsrOV/tf2Ao0cCEAAAhBolYC9DjgpaL547nTNJifwpt+nZXv93QcDwBwyNOU7nf8iFvx5qRhyIAABCGRDYNug3QHfn67h9KTS5O9p2V5/d90AsO14EW5/S/l69moE5EAAAhCAQDICEbFizD3w1SZr0GTCn847Kdfze9cNgAcF/Pq3uM9X9YSMLAhAAAIQyIaAhYq3V7zT82zTvx83WcOmwibzT8r1/N51A+CjAY34Qk/AyIIABCAAgewIPC1g7rAdY5emyQm86fdLhTp/6bIBYDGZz3RuxNNZ9e+sYYiDAAQgkB+B9QIWBP5jcv5oOulP5o/C12UDwML+TjLy+P6uKNDIhQAEIACBrAi8JmAOucW4hh4T0ljGWKb3Z5cNgNsHNN7dvQEjDwIQgAAEsiRgYYXHc6zX5z3HNfUSaHKiUpcNgN2dG++ceT6do+AjFwIQgAAEWiNgkfxOdZ5HHj+uDQbAmETM5zOdG+4TMcVEKgQgAAEIZErg3c7zyEvG9cQAGJOI+dzfueEsfCQJAhCAAASGQ+DJzvOIGRRFwgAYk4j5PNC54faMKSZSIQABCEAgUwL3cZ5HDh/XEwNgTCLm8+vODbdLTDGRCgEIQAACmRK4lfM8csy4nhgAYxIxnxaC0ZPx1jHFRCoEIAABCGRKwKLJes4jfx7X01PoWKb3Z5d3AfzNueE28YaLPAhAAAIQyJrA2s7ziMUEKBIGwJhEzKf57PdkfJWYYiIVAhCAAAQyJuA5j5isInkKHcv0/uzyEwAMAG9tQB4EIACB4RHwnKsxABLpDwZAItDcBgIQgECPCWAAOD1OtycKqRIGQCrS3AcCEIBAfwlgAGAAiDUA/e3g1AwCEIDAPAIYABgAGADzegfHIQABCPSYAAYABgAGQI87OFWDAAQgMI8ABgAGAAbAvN7BcQhAAAI9JoABgAGAAdDjDk7VIAABCMwjgAGAAYABMK93cBwCEIBAjwlgAGAAYAD0uINTNQhAAALzCGAAYABgAMzrHRyHAAQg0GMCGAAYABgAPe7gVA0CEIDAPAIYABgAGADzegfHIQABCPSYAAYABgAGQI87OFWDAAQgMI8ABgAGAAbAvN7BcQhAAAI9JoABgAGAAdDjDk7VIAABCMwjgAGAAYABMK93cBwCEKhMYGNJN5O0q6SHS7qbpG0kbVJZEhmiCWAAYABgAET3MuRDoGcErirp0ZIOkHSIpO9KOlHSBUvG039I+p2k70n6pKQ3S3qspM16xqcr1cEAWKKwZQG9LGGLn+1U5nHdCAecsPG4FQQ6SuD6kvaW9C1JlziPQf+S9B1J/y3phh3l08Vij+cAr8+CgZcwkxOVbML2LCcGQFRLIRcCEGiLwC0l7SfpeOfxctnY+1NJr5B067YqPpD7LmuHqucLbFUzLbo+qh0wAFYNIJ4ARGkZciHQTQJ3kXRU4kl/3jxw7Mp6gm6SzLvU85jXPV7Utm7mWfmi8GEAYABE6RZyIdBVAjeXdEQmE//0fPBVSdt3FWym5Z5m3PTvoppNhUzmj+KGAYABEKVbyIVA1whcV9JHJdm7+MnxN7fv/5b08VFZb9A1wJmW17t9i2p6Co3ihgGw2tF5BRClZciFQN4EbGveGyVdmPnEPz2nXCTpLZI2zRtv9qWb5tr076LCTYVM5o8iiAGAARClW8iFQBcI2OP0P3Rs4p+cG+z7qaNXFjt0AXamZZzm2fTvoppNhUzmj+KGAYABEKVbyIVA7gQeLOn8jk/+43nCfAvskTvwTMs3Zuj1WVTTS5jJiUoYABgAUbqFXAjkSmCtlW199i7dc5zOQdZrJK2dK/hMy+XdbkU1PYVGccMAWB0AWAMQpWXIhUA+BDYYueT9dA8n/sn55nOjNQ1Xzgd59iWZZOfxvaiwh6CxjCiCGAAYAFG6hVwI5Ebg2pJ+3PPJfzxnmBMh81pIWk5gzMzrs7ijlzCTE5UwADAAonQLuRDIicAWkv44kMl/PPecJsm2NpIWExjz8vos7uYlzOREJQwADIAo3UIuBHIhsH5GHv0854Uyso6TdMVcGiLTcpThWOWaoppVMiy7NoobBgAGQJRuIRcCuRA4eGC//Kfnk8+MFj3awkfSbALTvJr+XdylqZDJ/LOL3fwoBgAGQHMtQgIE8iXwooFP/uN55JX5NlHrJRsz8vosKuQlzOREJQwADIAo3UIuBNom8ABJfdzqV3dueXjbDZLp/evynJevqOa8k3WOR3HDAMAAiNIt5EKgTQLbSTqPX/+X8XNwgaTbtNkomd67zpy8KE9RzUUXVD0XxQ0DAAMgSreQC4G2CNge+FOY/C8z+Y/nnD+N4gds3FbDZHrfMRuvz6KaXsJMTlTCAMAAiNIt5EKgLQIvz2DyP0vSCZK+shK578uSbG/+mRmU7XVtNUym9/Wcqy+drz2FRnHDAMAAiNIt5EKgDQKbt/To/xeS9h9N+LeXZNsOF6UrSNpR0qsl/awFg8DiBphTJNJ/CHjO1RgAibTqbOeOgyvgRA3HbSAQSOBdzuPCosnh3JWYAjdqWJ8bSnqxpHMSlv1DDcvcp+yL2rjOuYJNnYzz8kTB5gkATwCidAu5EEhNYCtJ/0wwido93inp6s4V3FTSWyVdnKAO/xrFRNjGufxdFTdv3q17vOBQN/OsfFFgMQAwAKJ0C7kQSE0gRZCfb0m6cXDFtpT01QRGwOeD69EV8bPm3CbHino3ETCdNwokBgAGQJRuIRcCKQnskGDCtF/96yaq1DqSDkhQpzslqk/Ot5meb5v+XdS1qZDJ/FHwMAAwAKJ0C7kQSEngm4GTpT3yf0rKykzcay9JFwXW7ciJew316+Rc6/G94OghaCwjqmEwADAAonQLuRBIRcDC3o7HSu/PSyTdI1VF5txnl+B1ATeZc9+hHPbWmYKbp9CohsAAWB042AUQpWXIhUAsgb0DDYBnxBa9tPQnBNbxBaVL0c8LPedqk1UkT6Fjmd6fGAAYAN46hTwIpCZgC/M8x9uxrPemrsiS+9kOgXHZPD9/sOS+fT/tydJkFclT6Fim9ycGwGqH4gmAt3YhDwLxBK4qyR7Te463Juv7ktaLL36lO9jCwIi1DhYw6RqVStKvi711p6DjKTQKNwbA6sCBARClZciFQByBxwRM/rZH/hZxRW4k+aZBBs+TG5Wq25k952qTVSRPoWOZ3p8YABgA3jqFPAikJHBYgAHwkZQVqHGvDwTU+Yga5ehLFs+5GgMgkVbgCjgRaG4DgUwJmM/9850nwy74yb+WJAvt6zlx2VbDDTNt5+hieXLEAIhurRX5GACJQGd+m7UkXWnlHaa5gr3V6D3pnSXdS9JtJW2WefkpXn0C93WeBG3wflP94iTNaeX0nrgekrQG+dzMm2NRM0+hUah4BbDaiVgDEKVlvnItktpOI5Gmu7b6+8ISA6EFbTl+9F73sysD/P1HkdtMDqnbBPYt0fZVx+HbdATJrQPqvl9H6u7rWgO5AAAgAElEQVRdzKo6suz6onzLLqpy3rvCY3kYABgAY13I+dNCvL6owoRfpm+ZUXDwKEb7g0qEb82ZzZDL9jbnSfBPo+h+9kSpK+n3zvV/X1cq7lzOMuNFlWuK4lXJsOxa5/peKg4DAAPgUmXI8Is90re92GV+5S/rQ4vOnyfpk5LsVxWpOwQ+4zwBWijhLiVvvwBf7FLlHcu6aGyoc64oWp2M8/I41vUyojAAMAAuoxCZ/GGBXQ4dxUi37Vjz+kTEcdsP/TFJ186EA8VYTMAc2HjqQdsufxfXds2zOzvX/7g1bzGII546ZLKK5Cl0LNP7EwNgdQBhDYC3dlWXZ85I7FeIZ9+pI8tWgr9a0pWrV4EcCQl4PwK/TsKye9zqas595S8eheqgjDpjxKI8BYJFF1Q9F8UUA2B1ssEAiNKycnLvLekM5wGtaj+bvv50SY8qV3yuSkzA3tVf7Kgv9vQnN89/y5DCYBmhcuen+33Tv4u7NhUymb9cNapfhQGAAVBda3xz2Gr8tzsO5JP9xuu7bbla27faSGtIwPvXrxl7XUynOPedrj0F8Wgzr3FiLKco0/gPj0+PSs6SgQGAATBLL1Id22a0Cv+nzgOYR3+bJeN/JV0xFRjus5SAueqd1U51j/146R3zvOBIZw475lnN0FLV1Zl5+YrCzjtZ53hU7TEAVgcRXgFEadlsubYX39ubWZ2+VSXPsZKuObs6HE1M4C7OE983Epff63bea2a6thDSg2OVMaDMtUWZylxY9hqPSs6SgQGAATBLL6KPPa2FFf5l+9qy62yv+C2jASF/KYGbORsAP1t6xzwvONqZg3nSHFpa1uerni/4Vc206PqoBsEAwACI0q1Zcm3R0mudB6xF/SbqnLmhHuJAOatN2zq2sbMendlWRRre91RnDkMMC+w9ThRN6im0oY7MzY4BgAEwVzmcT1xO0sedByvPPlZV1t8k3dyZEeKqEbDtmlXbbdH1FlyoS2kd5ydpl0gymUNLi3SizrmCX52M8/JENQgGwOoAwhqAKC2TjO03nQfreX0l5XHbN32TOGxIXkLgRGedusGS++V2egvn+tvrrSEm7zGjYOgpNKpRMAAwAKJ0ayzXvOrZ+1XP/pCTLHsEe6NxZflMSuC7znr10KSlb34zW0jr2ReOal6kTkrwZGiyiuQpdCzT+xMDYLUD8QTAW7v+84jcflV49oUcZf1B0vX98SFxCYFDnHXroCX3y+30h53rb1tdh5i8x5SCoafQqEbBAFidnDAAfLXsrpLOcR6gPPuUt6yTiCHgq0AlpB3grF9nSVq3xH1zuMTe1f/Vuf5dC4bk1Q7eY0FRLk+hXhWdloMBgAEwrRMef+/p7KbVsy9FyvqNpCGuovbQmToynus8AZpuWICdLiRvPwhW9xd3oeIBZfQeE4oiegoNqHMhEgMAA8Bbt14YMCh79qVoWT+XZG5qSfEEvKPhmW58JL7YLnfwfvxvdb+nS8m6J8R7TCgIeAqNQooBgAHgpVv2SPI9A5/8x33+J5Ku6gUWOXMJ2ON6278/5u7xaSGot517xzxOmBMk71DZ50q6fB7VS14KD72ZlFFUYPJA0+9RRDAAVgcP1gDU17INRo5xDnceiOv0GRsUT5b0FUkWK94zWlzV8hyj/2x/rE+VnGUIHBigd0eUuXGL13wuoM6farE+bd+6at9edn1Rn2UXVTkfBQgDAAOgqW7Z4+4fBQxIZfqHTfD2KPRBK7/aLLLgZDLHLjutvNs0o8AcnZSR63WNGSFXniwQ390JWNt7tdeknF3cS+oj8I5B9d3Dp3idlDLZ7h7fCwgegsYyoqhiAKwOHjwBqK5ltv/d2xnLWOeXfb5P0rUqFvmmLTypsL3qRBGs2FAVLr+SJG+PgKZ7v5K0UYVypLjU6hrhU+OfA39atWysqXq+0IWqmRZdH6VcGAAYAHV163aSzgj6NbKoL5gL3gfULfRKPvu1c2HCsn99FAOha25mGyJOmv3zQW35pYxc41ocDdunv6hv1D33taStld/N6nKbl6+o4byTdY5HIcMAWO1QPAEor2VthfL9paPDndsnNmBsMhnqIqvymlXvyscHTYw2Vr+pXpHcc706sI5Pdy9ttwTWmZMX5Slqv+iCqueicGIAYABU1S0bLLxXIJfpD9+TtEnVwi65fruAVeSL6mKLt9ZbUiZOVydw9WCdbHuCjDRwTF/NXfeQ06I+W+dcwbJOxnl5ohoHAwADoKxu2SPI1wX+Cpmn+3b805KmF/iVLfey624tycL7Lrq/5zlbbT3EiGvL2qHpeePq2U7Tst7SQrutnaDP2e6doafptm76d8GzqZDJ/FENhAGwOmjwCmC+llko34ODB9hJfZ/8/mZJNhBGJlvPYPugJ+8b+d18zkfXKZJXjrJtQWr0tk/bSbJxospvKOkLwTppu2LMp8DQk3dfL3h6Co1qIAyA1UEfA2C2lhmXNkL5/lvSs2cXKeTonSWdHzzgTo4JH5RkT1VIfgTekaD9fivp3n5FnilpN0m23mVSXyK+f2Dm3Yd30JttQdBTaFSTYACsdjIMgDW1rK1QvrZC/8FrFif8yK6JdwcMNfhKVEOaT4pUT3K+I2lH54rY6yjbMeI5d8yTdYGkazqXv6vi5jGqe7zgUDfzrHxRYDEAVjsbBsBltcwWyLURytdcu5qzk7bSvSRdlGgQtr5urzhIfgRemrDtrP1sa97ukmyPfp1kXjRtW+uhkuyp16zxP+LYa+oUtqd5vPkWmDyFRnHHAFjtcBgAq1rWVihfc+N7k9VitPbNBmRzjuLZhxfJem1rNe3fjc3p0mkJ227cruaMyBbUPW5kFNxSku1MmH7FY3/bU4pbjFxWP2b0+VlJ9kt8LCPVp4URzs3JUZua6M29qIun0Cg4GACrnQ8D4D9a9qgEi6lm9Y1jMwul+9DEroP3i+rkA5T75BYm1Vk6bUbk7yWZbp/SUr+aVa69B6gTi6o8i1GTY8W9mgiYzruo8E3OYQBgAEzqT1uhfM1JTt1HqJPl9/5uxlBKnwf/412BgcqzKIEWh2F6HOVvyYJU2a4e0ioBb70oJHsKXS2q7zcMgNVBYshPANoM5Wur4W3AzjU9IfG72ZQ7H3Jl7lGuzUeP4/+AEXAZI+jPNeJneLRF7jI852qTVSRPoWOZ3p8YABgA9s40ypf6sj7Qlcfe5gluWV08zz/Nu6MPVN72ibd2euqAtyzbWeO9a6EvauXNuuDiKTQKNAbA6sA+xCcAbYXytXejtliqS+k5CY0AWw1u7l9JzQnYdtKUq+s9x31PWXs2R9lbCZ6cTVaRPIWOZXp/YgAM1wDYqqVQvrZP+x7eipxIXso1Erb2gEHbp2G9xznPsT2FrP19MPZWincbFKA8hUaR9+4YJi9V8vbfPqQnAOb61rYCeepoGVn2DtIey3Y5vSIhN3PV+pAuw8qk7Lb9LjpWQBn9b+MaC0CF2+nFiujdLsXdPIUuLn79sxgAq5PgUAwA2+Pext7jX0i6Xn1VzSrn6xMaAfa6xMIvk5oRMIc7Q9sZYNsPr9wM2yBye87VJqtInkLHMr0/MQCGZQC0Fcr3uwGhfL37QlV5b0toBJhnwntWLSDXr0Fg/ZGjqUMStpvnHFBV1mck2QJf0nICVdkuu76447KLqpxfXoV6V2AADMMAsEegbYXytUevUaF862m9Ty5j+t6Ek4l5mjMPjaTmBF7c84WBr5zhhbA5tf5KqDIXl7m2IFXmwrLXRKHHAOi/AdBmKN8Dev7+0YyAjyQ0AixaoUUtJDUn8EBJ5yVsu7JjfZPr7NXew5qjGZyEJsxn5S0AzjpR91hUi2AA9NsAsHUN32phkLNtV/tEKW1mcs2J0icSMrZdFLaIk9ScgPnkNxe9dcflnPJZ4C6LJkiqTsC7HYsSeAqtXqVyOTAAVjt/3xYBDi2UbzmNj7nKPBnaO1fPPr9Ilu2AYbD3aUvzhfG9hG23qF3rnrPFjVv44BiklLrc5+UrIM47Wed4VKtgAKwO2n0yAIYayjeqn5SRa69aUnpUtLDJ1s6k5gRsm5zFfeja04A/joIN7SXJnkKR6hOoMycvylOUZNEFVc/Vr9rinBgA/TMAdpX09xZ+0eQSynexxseevbykryRk/5fR/vabxVZpUNJtsepzJZ2VsA2rzgV2/TmS9pVkuxpIzQnUaYNFeYoSLbqg6rnmVZwtAQOgXwZAm6F8LfgKSbL95inXXZhzJfPqSPIjsPEoOuUbJJn//KpjdeT1th30zZI29asqkgLauIDqqQhRrYQBsNrBu/4KIKWb2kndzjWUb1SfKSPXQhv/X8DAMsl98rs9Cr5BmYJxTSUC15V0oKSLE7blZLuOv5szqINp40ptV+XiMWevz+LeXsJMTlTCAOi+AUAo36je0UzuRpKOSjhx2CuY6zQrMrnnELC2fPiKE6FUr9dst4f50NhDkj2RIMUR8JyrL52vPYVGVR0DoNsGQJuhfE13SIsJ2MB9XEIj4LesBl/cIA5nbbHnbpLeLelU57Y9bcW51L0k2XoSUhoCnnM1BkCaNtPQgwHZ9qWUvzDHncQeR9rKY1I5AptJOsF5ohi3xazPX0q6ermicVVDAuYIagdJTxp53ttP0vskfUHSjyWdPsPboPnHsIWbZhR+UdL7R46yXi7pySu+HQja07BBamaf1Y+aHCuK0UTAdN6a9VqajScA3XwC0GYoX/v1Q6pGwBZI/iqhEfBTFopVa6Cgq9eTZP44brnyesaeHpDyIzA93zb9u6hhUyGT+aOQYQB0zwAglG9Ub4iVe01JJyY0AuxXKO+OY9sU6f0gMDnXenwvqHgIGsuIwowB0C0DgFC+UT0hjVxbVZ7S2cyPJG2YpmrcBQKdJTCeZ70+CxBewkxOVMIA6I4B8AxJ/0r4C3Ksv30M5RvVn8rIvaEk89s+5hv9aW5uCQtbpmW4ZqgEvPtgwdFTaFTDYACsDsS5+gGwhUavTzhhTOptX0P5RvWnsnK3XlkkNsk68vs38RpXtmm4boAEvPtegdBTaFSbYADkbQDYViBzAOKpS2Vl9T2Ub1SfKit3G0l/Tdi2X2ZrWdmm4bqBESg7Jpa9rsBX9uIy10W1BwbA6uSa2xMAK09Kl7JjPRxSKN+oflVWrq0OT+l3/nBJtjKdBAEIrBIYj31en4VkL2EmJyphAORpAJhHt5R7x8e6ar7Pd49SNuTOJHDbxMGbDpVk4YtJEIDAfwiMxz+vz0KqlzCTE5UwAPIzANoK5fs3SXeIUjTkLiRg3M9L+DrAXivhdGZhk3ByQAQ85+pL52tPoVFtgQGQlwHQVijfkyTZwjRSewTuIumChEbAh0fe62yBKQkCQyfgOVdjACTSpr65An50S1HHjhn5NSeUbyKlXXKbuycOQfsejIAlLcLpIRDAAHD65WFPFFKlPhkAL3LiX1WRjxjFPbfQtaR8CNwnsSH41nyqTkkg0AqBquPmsuuLSiy7qMr5KCq8Amj3FYCF8n1vS5P/B1gMFtWtGsu1hZiXJNQL8zNBgsBQCVSZi8tcW3Asc2HZa6IaBgOgPQOgzVC+L41SKOS6EXhEYs+Pr3ArOYIg0C0CZefhstcVtS97cZnronBiALRjABDKN0qj+yX3sTNCypYZL+peY6+iSBAYGoG6/WVevoLfvJN1jkc1CAZAegOAUL5R2txPuRYrvs6YUTfPc/qJkVpBYC6Bun1lXr7iRvNO1jk+t+QNT2AArA6uKTwB3j6x+9exrv1Z0vYNdYXs7RHYO7ERYIGnSBAYCoHxOOn1WXDzEmZyohIGQDoDwEL5/iPxQG668wtJ14tSIOQmI/D8hLpj7qCfmKxm3AgC7RLwnKsvna89hUbhwQBIYwC0Gcp34yjlQW5yArZ403NcWSTLjADzTUGCQN8JLOoHdc4VvOpknJcnqgEwAFYH1IhXAG2G8v0k0d+iuk2rcl+T0Aj4l6SHtVpbbg6BeALz5t26x4sS1808K18UAgyAOAPAQvl+IuFgPak3b8LDW1SXyUKute9ke0d+/6ekB2ZRawrRlID5HbmJpDtKup+kvUYxKGzR58tHAameLWkPSXeVtK2kzZrerEP5vftPUXVPoVEsMQBWB1LPJwBthfK1X2y2YIzUfwLvTGgEXCzp3v1H2rsabiDJYky8WNJXJJ1bUWd+L+mjkh4n6Ya9o7NaIc+52mQVyVPoWKb3JwaAvwHQVihfW2BIKF/vHpKvPHu9ZN4cPceZRbIsVPTd8sVBySYI7CzpUwEupf8g6XWSrjtxrz58XaT3dc4VTOpknJcnCjIGwOoA6vEE4BaS/pRwUB7rC6F8o3pI3nItpO+BCfXNohXulDeSwZbOFvvuI+lXCfTB3FQfKunOPaE9Hke9PgssXsJMTlTCAPAzAAjlG6WlyF1EwN7r2oJPz/FmkazzJP3XogJxLimBy43iRpgHx/MT6sCkfhwnyZ44dDlN1sfje8HCQ9BYRhRcDIDVgbPJEwBC+UZpKHLLEFhP0mcTTgDnSLptmYJxTSgBm3h/mbDdx/PRrM/3S+rqluNZ9WlyrGj0JgKm80ZpEQZAcwOAUL5R2oncKgTsl+AXE04GZ0q6ZZUCcq0bgatLOihhW0/PR/P+No+jXVyHNK8+dY8XDV0386x8bpozJQgDoL4BQCjfKWXiz9YJXEHS1xJODGdI2qb1Wg+rAPdtyZ34rHlp3rFPS2ryRDV1i86rR93jRfnrZp6VLwoIBkA9A8BC+X4h4UA7qROE8o3qDf2Qa1u/vp1QN0+TdON+oMu6FuZX5K0J23VyzKnz/XeSbp010dXC1anfojyF5EUXVD23WlTfbxgA1Q0Ae/x2VAsd0RyyWHhYEgSWEbiypCMT6qjtfOnzPvFlvKPPby3JFttVnTfavv6i0dOKp0fDcZDvzakokqdQhzrOFIEBsNqpyjyyslC+Ztl6tm0ZWebA4+4zW5CDEJhNYKOR856jE+rqKT3cHz6bbNqj5oSnrRX+ZcamMtfYLpUN02KrdLcydahyTXHzKhmWXVupNhUuxgBYncyXGQBthvJlsVUFpebSSwlsIun4hEbAiZKueend+dKEgBlwbbkSXzYf1Tn/m9FOFfOTkmOqU59FeYo6Lrqg6rkoaBgA5QwA84XeRijfn/OrKkr1ByPXfLqfkNAIMEc0mw+GbkxFdxxFYjwpYZtVnY/qXm9jaI5hpuvWZ16+QivmnaxzPEbNJAyA5QZAW6F8v9PhfbVR+orcegRsQv51wgnFDI4hBZOp1ypr5jLPjvtKsvU+deaJruSxLYxXWrP6rR3x5lZUxFNoFBkMgNWONv0KwHytv6Gljkgo3yiNH67cayVev2KL1uwVBKkcgWsk3sLpOT/VkWUOjHLZQlqn/IvyFC2+6IKq58qpUPWrMABmGwCE8q2uS+TIn8D1RiFgLcJb1fGn7vW2W8beZZMWE7inpL8kbJe67emdz2JL5LCzybteRWt7Cl2sPvXPYgCsDobjJwD2mXIf9VhPCOVbX4/JWZ7AlokDVv1fZo97y5OKv9K8Nx4g6d8DnPzH4559fngUZdD8V7SVJsvi8b2oh4egsYwoMBgAlzUACOUbpWnIzYmA7Ss/PeGkYwZ1mwN8TuzHZbEtxccmbIPxXJLr588k3WQMJ/GnN5Oi+J5Co3hgAKwaABbm9NQWOiShfKO0G7mLCNj7178m1PevSjJXxSTJgoeZbw/POaIPsizS5CNbUBBvdkUVPIVGMcEAWO2E9j7Ks83KyLKtPvZrjASBNgiYf4mzEuq9uc+2x95DTeahMccgPmXGqpTXvC+xsehdt0K/PYVGdRgMgPST/lgvjmG/dJRaI7cCAQvra+F9x3oZ/XmYpHUrlK8vl95m9Ov2twk5L2vHv6+4ND9Q0utHkR3/V5I5csplPYI5sLLXJCnSMlZVzxdlrppp0fVREDAA0g18k+1rYVtz2gcbpV/I7QaB/5Jkj18ndTTy+yGSLJrmEJJtJ36upIsT8p3XdmePgNuYf+0F4C3Q2Z0kHZFBec1IeeiCsnqdmser7vGiXHUzz8rnVdFpORgA6Qa9cbu+f6C/gKZ1j7/zInAXSSlfg31Ukjm+6XOywGFfzmAitSc8L6/hWMzWRaUMKjUeI6c/3ynJtmZHpen7Nf27KGdTIZP5oyqOAZDWAHhJVEMiFwIOBO4m6cKEE5a967VfyH1MFrwr5U6Lyfli8rs92t+0IeCHJ35NNFn+8Xd7ZRoVcXJ8D6/PAreXMJMTlTAA0hgAhPKN0mDkehO4d+LH1W/3rkDL8tZbeafe9rt0M+Q8Q/Ha5Nv2tkV7hWFxWbyT51x96XztKdS7wmN5GADxBgChfMfaxmdXCNggm9If/Ru7AmZJOc3Jknk/9Bz768iyIGI3X1LWOqftMfy7MqjfW5x3k9RhvChPwXbRBVXP1WmsMnkwAGI7q/kVIJRvGU3kmtwI2GNf805Zdayqe/2rcwNQsTy2f90WrdWtv1c+e60S7XTJdKNtPwY/dIyU6sV+LKdQnfEfHp8VdbH05RgAcR2WUL6l1ZALMyVgDmtSPsru4hoZ283zkQwmfns8/pCEenTj0eP4n7Rc7zNHryXu61Bnjzl6UkZRpMkDTb871HGmCAyAGAOAUL4z1Y2DHSRg8dtTGgHP6xCj7ROHWZ43j9hKfQv0lDqtL8l2Nc0rV6rj5segiW8J73IW7eApNKphMQD8lZdQvlHaity2CDwj8SD/rLYqWvK+tnPh2ZIuSsxlek6xVzT26qTJ5Feyygsv2zOxH4lpDvb395f4N1hUgVnymhwr7tVEwHTeRYVvcg4DwNcAsMVMfd3W1ETPyNt9AubMZnpcivz7yZki20ySOfKKrHsZ2ba+aOeMGN1U0gktc7HYFveowaQM7yrXFEWokmHZtTXqVCoLBoBPRzZLPPdfLaUUgosgsIDAixIO8PbaIYdY8ZM47irpzwkZzJsXPu+wt3+yXl7fbfFh2+shTG/sqUgVT5PzONc9XvCsm3lWPq8GmpaDAdDcAPiHpAdNg+VvCPSUwCsTToBmWD8iA472iH3/xGshZs0D9sph7wx4LCvCXom9Ss5iZSGot1hW0JXzs/I3OVaIbSJgOm/JelS+DAOgmQFgoXzNjzoJAkMiYIuupseoqL8vkbR7i3CvL+kHCes7j+OvOraleFtJv2yZm3li3LWE7sxjXvd4ccu6mWflK1GHWpdgANQfyCyUr22FIUFgiATelnBwt0A692kB8sMycIFr88GHRt4FLUhP15Jtkfx4Qj2ZNXfaU6T9lsSdmJWvybGinZoImM4bFUMbA6CeAXD0yCOWBfogQWCoBGyx63sTDu7m2tb866dINtl+MGHdpsf78d8WxCeHVyBNmT9Jkr0qHderjc+vLxizvctT8PIUeq2mLTAnPwZAdaUklO8cZeLw4AiYEZBy0ZdFK4xe+X6LDB5d29zxI0k36JFGGdfftGwE2AJOi3A4nTznapNVJE+htxoLdf7EAKhmABDK11kBEdd5Arba+uCEA/t5ku4QRO2ZiaMhzpojbBX76yRZUKG+pQ0lmZ+UWfVOdczWlNhulslQ1N73LtrNU+g9gzQBA6C8MnbRTWmQ2iAWApchYKvkD004sJvP/R0uU4Jmf1i43MMTln/e3HCaJAvJ3PdkUQrbdqL0ZUnm08HSvPaoe9xdaNR+WAyA5Y1vUdEe8x894X8IQGAOAfvFavvT6w6aVfOdJclc8TZNd5H0p4TlnlfPL0m6WtPKdCj/rSX9rmXuf1x5mjSvTeoeL5qhbuZZ+WwPakTCAFg8YNkvjSFY5BG6hczhEbBwsfbLatYYFnHMPL/ZdrM6yZ5amE8DWyUeUbayMm2Hw3MG6kH0KpIOa5l/RNjrQh/LKkCZ646to+El8mAAzO/8hPItoUBcAoEpAhYg5psJB3Xb632TqTIs+/O6K77jy4y9kdfYojj7JTz0tI8kM4QiWaeUXbSn5w1tYUjE4yEMgNlKRyjfoQ9J1L8JAdtG972EA7oZ61uWLPCDR2677fWB5/hcR9aBkq5cssxDuGzHkevnUzJolzptOZ2naK/pg03/3iNACzAA1hwIzIXkxgGsEQmBIRGwFd+2la3puFc2/++XhMQ1P/Up/RbMK/e5o3ffjxqSIlSo6yaZLMac13ZljxdVtl/tZTOUue6jFUCWvRQD4LJtdIgke49JggAEmhMwQ/rHzuPgorHSFpXN8pli6wTajlRn5T5G0o2aY+21BPMt8TxJEe/mF+mO57migbytX3OCMd624KUBGACrBgChfL20CjkQWCVgW+x+mtAI+LWka6zeXk/NwAud/Ri08SXKo+tEdXvz1WKs2Cp9z4k5layiEWzfuPcNLcyhZ8IAWG0jW5FKggAE/AmY2+yUgWFsDc/WGawwt/H/LzVj1Pu3QvckmvFo2yO959FoeQVp897nfSPzDb2RYztiAKy2EQaAo2IhCgJTBCw0628DxsR5Y6z3K9h591l0/KuSNp/iwJ/VCNgrgReOvPeZB79FrHM6V9TQCm6+h70LZjC8EgbAavtgAHhpFXIgMJvAdUZOtU4OGBO9x9im8uz99QsGurd/dss3P3pnSbbbo2nbpMh/aW0/EFDgs0eRqqwjeSQMgFWFwgDw0ChkQGAxAQtw09V3u2UmD1uI6OmmeDHNYZ21V0lfC5hTy7RrlWsubZUHBhXWtqpNBjO49IYVv2AAYABUVBkuh0BjAlsFPR2tMkhHXGtBkWz7IymOgM17Nm+17cFxkf5cWntz9BAV9GDfS+9S/wsGAAZAfe0hJwTqE7jpygK5RQNpV85ZhMK96qMgZw0Cu0gyL5A56shlqhO1itFcJzZ1I4kBsKpAvAK4jNryBwTCCWwn6W+ZDuJlJxbzc3DjcFLcYBYB2+75rQz15zJl3TmwgLbIsKof7MnCYQBgAEzqA98hkJqA/YixdU1lJ9ycrnsLjkhr7mMAABMhSURBVMNSq8sa91tH0qsk5bDrY6ybaxQy0kqxGNI3W+OO5Q5gAKwOPDwBKKczXAUBbwK3k2QucscDaO6fFoXwPt4QkNeIwG6SzshEh9aoyJ2CC2bvQrZZ467LD2AArA46GADL9YUrIBBFwMbI84PHSQ/D4hujmALm04CUHwFzA50yCNU8fZpJJnr7Qh2rFAMAA2CmsnIQAi0QuGsGbnvnDeq2t/9FTruvWkA7mFuuK+m1Lb8SmAn79oms23eOAFhM7jIJAwADoIyecA0EUhG4Z+DOqXmT+7Lj5rzIxm9Sdwjcu8UFpnMpHZHICDBf2LeYW4rVExgAGACr2sA3CORB4P4ZRYP7lCReD+ahF1VLYQ7zfpBozp00IueW87YJC2OOEkx5F20VxADAAJirrJyAQIsEHtKy/3eLvvrEFuvPrX0IrDdyzvSmhPOuGQIL00GJC2MFsvUHu87wTY0BgAGwUFk5CYEWCTyyJY9vP5FkjopI/SFgT5XOSjT3LqRm3gF/laggk48l7LuFpvyYpD1XolRhAGAALFRWTkKgZQKPS7yg61hJV2i5ztw+hsD1JR2VYO5dWvptJdkjpukJOuXf5jjB2wGHGRSpknfZec+XquW4DwSqEXhq4rFyn2rF4+oOEbicpLcF61MpHI8JLkRKY2J8LwyAUk3PRRCAQEUCNimPx5kUn2Z0kPpL4MGSzgnSqdLUIsIFp+gc8+6BAVC66bkQAhCoSMACoM0be7yP2xNSe/1A6i+BLSVZLAdv3SlNzPbrHx9QAO8KlZWHAVC66bkQAhCoQcDGmLLjUdPrbCeVLUQk9ZeArfdoqifT+SvRupGkvwcUYrpQKf7GAKjU9FwMAQjUILB/wvHyEkm2JZHUXwLec2NlUhbbuEvBMOYBwwCo3PRkgAAEahA4IKERYG6AbRsZqZ8E5s1ndY/XonSbjKIZ1a04BkCtpicTBCBQg8C7EhoBF0kyN8Wk/hGoO9/Ny1eb0I0lnZJQqedVoO5xDIDaTU9GCECgIoG1JH0w4Xj5j1G0OQtYROoXgbrz3bx8jehcU9IJCZV6XiXqHMcAaNT0ZIYABCoSWHvFuVmd8apOHgtZbKGLSf0hUEcPFuVpTGYTSUd20AjAAGjc9AiAAAQqElhnJe7JokHZ85yt17pdxTJyeb4EPHXDZLmkDSSlih7oBQADwKXpEQIBCFQkYEFf/jfhjybzRLoo0FrF4nN5iwS85r+xHLeq2OOtZ3RomyAGgFvTIwgCEKhIwNy8pvzRdKak7SqWkcvzIzCeuL0+3Wt4LUmfTWjd1gWBAeDe9AiEAAQqEDDHLl9POFaeMXr9cLMK5ePS/AjUne/m5Qur4QMk/TGhcs+r4LzjGABhTY9gCECgJAF7ffqdhOPknyVtVbJsXJYfgXnzWd3joTW0cMIWzcjcVNYtYFQ+DIDQpkc4BCBQkoCNkykXUtsPsxuULBuX5UXAez5MUrvbSvpiZobAq5LU/D83IRxwQtjcCgIdJLCRpKMT/lA6eeSX4Dod5DT0InfSABg3mincfpm8GrDohqkSBkAq0twHAt0lYFuqUwZc+60k8+VC6g6BThsAY8y2F/Y+kg6XZAEsvCtVRp49kUiVMABSkeY+EOg2gc1GAX1+nnBM/KWkq3cb2aBKX2Zuq3JN6/Bs18BLRgbBMZLMh3WVwje51mIrp0oYAKlIcx8IdJ/ANST9OuFY+DNJm3Yf2yBq0GTOm5U3K2jmIOMWkvZaWTz4fUnnBXWE0xLWHAMgIWxuBYEeELAfRr8LGvtmTQT2g2jjHnDrexVmtV2TY9nzMgdDW0vax7kz2M4EMzhSJAyAFJS5BwT6ReB6ox9Dv3ce9xZNFj+StGG/EPauNovar865zgAyz1nerwh2SVR7DIBEoLkNBHpGYEtJpyY0Auyp65V6xrBP1akzyS/K0yk23ttkzEdBioQBkIIy94BAPwnYE9DTExoB35K0fj9Rdr5WiybzOuc6BeTdzp3glES1xwBIBJrbQKCnBLaV9Ffn8W/RhHFATzl2vVqL2qzOuU7xeHxAB9g+AQEMgASQuQUEek7AxqqzAsbAWROHrZHaoec8u1i9WW3V5FinGNwyQPlfnoAABkACyNwCAgMgYJPy3wPGwVmTyE8TLpQeQNO5VHFWOzU55lKoVEJs1f6FzspvEbLMF3dkwgCIpItsCAyLwB0Ct0dPTyYPHxba7Gs73T5N/86+wtMFtK0qTSs9nd/cE0cmDIBIusiGwPAI3EXSBQFj4fTYuP/w0GZd4+n2afp31pWdVbh3Bij9uZLMBWdUwgCIIotcCAyXwN0DnohOTyhfGC7eLGs+3T5N/86ykosKtWuAAWAQ37Lopg3PYQA0BEh2CEBgJgGLqXJx0Jho42KqnVIzK8fBNQg0nfCn869xg9wPrCXpxACFNydDttUmImEARFBFJgQgYAQeFBhUzcZaUj4Epifwpn/nU7MKJXl+gAFgIC08ZoQ/bAyACo3LpRCAQGUCj5BkW/eaTgjT+T9RuSRkiCQw3T5N/44sa5jsqwW4BR6DPEKSxR/wTBgAnjSRBQEIzCLwmFFk1X87GwHPnnUjjrVGYDxPeX22VpGmNz7EWdEngb66aeGm8mMATAHhTwhAIITAk5zHxduFlBKhdQlMzlMe3+uWo/V8tg3GA8A8GU9wrCEGgCNMREEAAgsJPNNpbPz0wrtwsg0C8+arusfbqIPbPX/lpOjz4NkeWFt02DRhADQlSH4IQKAKgec1HBtPk7RplRtybRIC8+aquseTFDrqJvZ+qm7Fy+Y7VNIGDSuAAdAQINkhAIHKBF7UYHy07YWk/AiUnbfKXpdfDSuUyEJWRmwJnIZ3lKRrVyjX9KUYANNE+BsCEEhBYDdJf6pgCNi1909RMO5Ri8D03NT071qFyClTlGOgabDmdtNcBl+xRuUxAGpAIwsEIOBCwLY2H7TECLDdA++VtJHLHRESRWB6Xmr6d1Q5k8r92BLlbgppMr9ZyLbdpsraAAyApOrAzSAAgRkEbixpj1HwszdK+ubKP/tux7accT2H8iMwORd5fM+vhjVKZH78/5bQCDDwx43u+YyR1bxFifJiAJSAxCUQgAAEILCQgMekPylj4c26dHKvxAbAGKJ53/rOEmMAA6BLmkRZIQABCORJYDzveH3mWcsapbJH8t9qyQiYbAx7EnG0pE+N1gu8XtJTJZ3vXK6r1OBDFghAAAIQ6DaBybnG43u3aUyV3t5xXeg82XpA9paBATDV8PwJAQhAYAAEvOeS3iF7ZIA/bG/oTeVhAPRObakQBCAAgaUEms4d0/mX3rCLF+zT86cAGABd1ErKDAEIQKAZgekJvOnfzUqTcW4L6NMUTq75MQAyVjyKBgEIQCCIgPecFFTMPMS+v6dGAAZAHvpFKSAAAQikJIABUIH2OpIO66ERgAFQQQm4FAIQgEBPCGAAVGzIK2SyPdCz4TAAKioBl0MAAhDoAQHPecRkDSJt2LMnARgAg1BbKgkBCEDgMgQwAC6Do9ofz5H0zx68EsAAqNbuXA0BCECgDwQwABq24h0lndpxIwADoKESkB0CEIBABwlgADg02tUlfaPDRgAGgIMSIAICEIBAxwhgADg1mO0QeFVHvQZiADgpAWIgAAEIdIgABoBzY91V0rEdexqAAeCsBIiDAAQg0AECGAABjWSRBB8k6WcdMQQwAAKUAJEQgAAEMieAARDYQGtLesTo368zNwQwAAKVANEQgAAEMiWAAZCgYWx9wF6STsrUEMAASKAE3AICEIBAZgQwABI2yOUkPVDSRyT9NSNjAAMgoRJwKwhAAAKZEMAAaKkh7KnAnSW9UdJvWzYGMABaUgJuCwEIQKBFAhgALcKfvPXNJP2PpK9K+pWk8xIaBRgAky3BdwhAAALDIIABkHE7byTpppLuJumxkl4k6V2SLnA2Dq6RMQOKBgEIQAAC/gSu5DyPnOtfRCTOInCCc8NtN+smHIMABCAAgd4S2Mp5HrEn16QEBL7p3HDmvIgEAQhAAALDIXAX53nE5iVSAgKHODfcoxOUmVtAAAIQgEA+BPZwnkcOyqdq/S7J25wb7p39xkXtIAABCEBgisALneeR10/J588gArYY0HP15nFB5UQsBCAAAQjkSeA7zvPI3nlWs3+leqJzw/1Lku04IEEAAhCAQP8JbCbJxn3PH5IP6T+2PGp4W+eGMyV4Uh5VoxQQgAAEIBBMwLaVe07+JusOwWVG/AqBdSWd79yAR0MXAhCAAAQGQeBw5/nDDIDrDIJcJpX8RkADbp9J3SgGBCAAAQjEENg24PH/L2OKitR5BPYLMAAOm3czjkMAAhCAQC8IfDFg7ti/F2Q6VIldAxrRHuPs1iEGFBUCEIAABMoT2Clo3rhd+SJwpQcB8+N8UUBj/lrS5T0KiAwIQAACEMiGgK0ds7Ve3ov/TpO0dja1HFBBvD0CjhXjHQNiSFUhAAEIDIGAOXwbj/Gen+8dArwc67hLUIOacjw9xwpTJghAAAIQqEzgKYFzxb0ql4YMLgTWkvSboIa9hPUALm2EEAhAAAJtErD3/v8MmifOk3SFNis39Hs/L6hh7SmArTGwgBEkCEAAAhDoHoEHSrJJ2vOR/6Ssg7uHpF8lvlrQYsBxI/97ZD1a0AgSBCAAAQh0g4A9HX7J6J+N3+Ox3PvTnhJv3Q0c/S5l1GLASYUxz1F4euq3HlE7CECg+wQ2kfSpwIl/PC+8p/uo+lGDm0i6OEGDnyvJIj6t0w9s1AICEIBAbwjY9u3nSDozwVxgrxWu0RtyPajI6xI0+tjyO3kUi+C5kszSJEEAAhCAQHsEbBHenpJsXB6P0dGfL2+vutx5FgFzDPTHhApgCmYBiT66onzXnFUojkEAAhCAgDuBjSU9UtKngxf5zTIkTpd0ZfcaIbAxAYvHPKvBUh37lSRbK/DhkYK8cWXx4Ask8Q8G6AA6gA7U0wFbhP1mSbbW6zuSzFtr1La+MnPFUxvPVAgII/C1lo2AMgrENe0aavCHPzqADtTRAYv6Zy6FSZkSsG0ZF2AEtPokpE7HIg8DMjqADuSsA7YIfJtM5z2KNUHAXgVE7v/MWUkpG4MoOoAOoAO+OvAvSfedmGP4mjmBl/IUgKcA6AA6gA6gAw46sG/m8x3FmyJgnqA+4dDwWNK+ljQ84YkOoANd0oGDpuYW/uwIgfUl/QgjgF8A6AA6gA6gAzV04IcE++nIbD+nmFtIOqVGw3fJQqWs/KJCB9ABdMBXB/6Et785s2rHDpuTnuMxAvgFgA6gA+gAOlBCB8zXwFYdm+co7gICG0r6aomGx4r2taLhCU90AB3okg7YPGGeBkk9I7CepI9gBPALAB1AB9ABdGCGDrwdRz89m/VnVOeVMxq+SxYqZeUXFTqADqADfjpgroWfMmOu4FBPCdyvheBBdFi/DgtLWKID6ICHDvxtFGNg557Oc1RrAQGL6PQ2SeblyUORkAFHdAAdQAe6owOHjSK63mDBHMGpARDYUdJPMAIwgtABdAAdGIQOfE/S7Qcwt1HFkgRsgaC5e7THQVjwMEAH0AF0oH868HNJ9vqXBIGZBMx74ON5IoARhCGIDqADvdEBc+pj4/o6M0d9DkJgBoGdJH1G0iUMBL0ZCPhV179fdbQpbTpLByx87yclPUKS/bAjQaAWgetKerakz0k6C2MAYwAdQAfQgSx14DRJ7x3FgLmnpMvXGu3JBIEFBNYeGQLbTxgEZzIQZDkQzPpFwDF+KaID/dGBsyXZO/2vS3rdyqI+G59JEEhKYANJ9pTgVpJ2k/RISfuMPEqZw6H9+QcDdAAdQAdq64CNo8+U9GBJd1jZtscj/aRTHDeDAAQgAAEIQAACEIAABCAAAQhAAAIQgAAEIAABCEAAAhCAAAQgAAEIQAACEIAABCAAAQhAAAIQgAAEIAABCEAAAhCAAAQgAAEIQAACEIAABCAAAQhAAAIQgAAEIAABCEAAAhCAAAQgAAEIQAACEIAABCAAAQhAAAIQgAAEIAABCEAAAhCAAAQgAAEIQAACEIAABCAAAQhAAAIQgAAEIAABCEAAAhCAAAQgAAEIQAACEIAABCAAAQhAAAIQgAAEIAABCEAAAhCAAAQgAAEIQAACEIAABCAAAQhAAAIQgAAEIAABCEAAAhCAAAQgAAEIQAACEIAABCAAAQhAAAIQgAAEIAABCEAAAhCAAAQgAAEIQAACEIAABCAAAQhAAAIQgAAEIAABCEAAAhCAAAQgAAEIQAACEIAABCAAAQhAAAIQgAAEIAABCEAAAhCAAAQgAAEIQAACEIAABCAAAQhAAAIQgAAEIAABCEAAAhCAAAQgAAEIQAACEIAABCAAAQhAAAIQgAAEIAABCEAAAhCAAAQgAAEIQAACEIAABCAAAQhAAAIQgAAEIAABCEAAAhCAAAQgAAEIQAACEIAABCAAAQhAAAIQgAAEIAABCEAAAhCAAAQgAAEIQAACEIAABCAAAQhAAAIQgAAEIAABCEAAAhCAAAQgAAEIQAACEIAABCCQnMD/B54xWAzLfzRoAAAAAElFTkSuQmCC;" vertex="1" parent="1">
          <mxGeometry x="330" y="91" width="20" height="20" as="geometry" />
        </mxCell>
      </root>
    </mxGraphModel>
  </diagram>
</mxfile>
